<svg width="412" height="307" viewBox="0 0 412 307" fill="none" xmlns="http://www.w3.org/2000/svg">
<g filter="url(#filter0_f_1_501)">
<path d="M140.996 227.122C143.287 227.151 166.505 263.402 166.505 277.491C166.505 284.256 163.817 290.745 159.034 295.529C154.25 300.313 147.761 303 140.996 303C134.231 303 127.742 300.313 122.958 295.529C118.175 290.745 115.487 284.256 115.487 277.491C115.487 263.402 138.707 227.097 140.996 227.122Z" fill="#42A0F0"/>
<path d="M121.546 287.027C124.095 287.806 127.334 284.6 128.782 279.866C130.229 275.133 129.336 270.663 126.787 269.884C124.238 269.105 120.999 272.311 119.551 277.044C118.104 281.778 118.997 286.247 121.546 287.027Z" fill="white"/>
<path d="M281.298 227.122C283.589 227.151 306.807 263.402 306.807 277.491C306.807 284.256 304.119 290.745 299.336 295.529C294.552 300.313 288.063 303 281.298 303C274.533 303 268.044 300.313 263.26 295.529C258.477 290.745 255.789 284.256 255.789 277.491C255.789 263.402 279.009 227.097 281.298 227.122Z" fill="#42A0F0"/>
<path d="M261.848 287.027C264.397 287.806 267.636 284.6 269.084 279.866C270.531 275.133 269.638 270.663 267.089 269.884C264.54 269.105 261.301 272.311 259.853 277.044C258.406 281.778 259.299 286.247 261.848 287.027Z" fill="white"/>
<path d="M205.852 179.295C208.143 179.324 231.361 215.575 231.361 229.664C231.361 236.429 228.673 242.918 223.89 247.702C219.106 252.486 212.617 255.173 205.852 255.173C199.087 255.173 192.598 252.486 187.814 247.702C183.031 242.918 180.343 236.429 180.343 229.664C180.343 215.575 203.563 179.27 205.852 179.295Z" fill="#42A0F0"/>
<path d="M186.402 239.2C188.951 239.979 192.19 236.773 193.638 232.039C195.085 227.305 194.192 222.836 191.643 222.057C189.094 221.278 185.855 224.484 184.407 229.217C182.96 233.951 183.853 238.42 186.402 239.2Z" fill="white"/>
</g>
<g filter="url(#filter1_f_1_501)">
<path d="M90.487 186.295C75.2647 186.316 60.3894 181.749 47.801 173.19C36.3707 165.443 27.2384 154.76 21.3638 142.263C15.4892 129.767 13.0893 115.919 14.4162 102.174C15.7432 88.43 20.748 75.2968 28.9047 64.155C37.0614 53.0133 48.0688 44.2745 60.77 38.857C70.1663 34.8591 80.2756 32.8077 90.487 32.827C93.4678 32.8271 96.4462 33.0001 99.407 33.345C97.6808 37.1196 96.3601 41.0667 95.467 45.12C94.5491 49.3035 94.0867 53.5741 94.088 57.857C94.0689 69.6102 97.5779 81.0985 104.161 90.835C108.405 97.1149 113.813 102.523 120.093 106.767C123.249 108.899 126.605 110.72 130.112 112.205C137.375 115.279 145.184 116.855 153.071 116.84C157.634 116.842 162.182 116.317 166.624 115.275C165.576 129.709 160.46 143.551 151.869 155.197C149.09 158.965 145.974 162.472 142.559 165.676C128.467 178.938 109.839 186.315 90.487 186.295Z" fill="#713FFD"/>
</g>
<g filter="url(#filter2_f_1_501)">
<path d="M77.0539 99.0076C94.1917 83.5767 99.5265 61.5627 88.9696 49.838C78.4126 38.1133 55.9616 41.1178 38.8238 56.5488C21.6859 71.9798 16.3511 93.9937 26.9081 105.718C37.465 117.443 59.9161 114.439 77.0539 99.0076Z" fill="#A586FC"/>
</g>
<g filter="url(#filter3_f_1_501)">
<path d="M52.986 13L55.551 19.2L62.486 21.5L55.551 23.8L52.986 30L50.421 23.8L43.486 21.5L50.421 19.2L52.986 13Z" fill="url(#paint0_linear_1_501)"/>
<path d="M167.486 160L169.646 165.11L175.486 167L169.646 168.89L167.486 174L165.326 168.89L159.486 167L165.326 165.11L167.486 160Z" fill="url(#paint1_linear_1_501)"/>
<path d="M133.489 32.6053L137.03 37.2473L143.344 37.6253L138.066 41.1113L137.322 46.9021L133.781 42.2498L127.467 41.8718L132.745 38.3858L133.489 32.6053Z" fill="url(#paint2_linear_1_501)"/>
<path d="M7.1838 148.601L11.0048 152.197L16.9482 151.602L12.3921 155.464L12.3231 160.707L8.51299 157.109L2.56965 157.704L7.1265 153.843L7.1838 148.601Z" fill="url(#paint3_linear_1_501)"/>
<path d="M130.152 84.0386L125.953 84.8898L123.468 89.2424L123.142 84.241L119.741 81.6352L123.943 80.7866L126.427 76.4338L126.75 81.4347L130.152 84.0386Z" fill="url(#paint4_linear_1_501)"/>
</g>
<g filter="url(#filter4_df_1_501)">
<g filter="url(#filter5_d_1_501)">
<path d="M255.781 233.765C253.848 233.92 251.895 233.999 249.924 234H112.4C102.934 234.035 93.5537 232.201 84.7979 228.603C76.042 225.005 68.0827 219.714 61.3766 213.032C54.6704 206.351 49.3493 198.412 45.7186 189.669C42.0878 180.927 40.2188 171.554 40.2188 162.087C40.2188 152.621 42.0878 143.248 45.7186 134.506C49.3493 125.763 54.6704 117.824 61.3766 111.143C68.0827 104.461 76.042 99.17 84.7979 95.5718C93.5537 91.9737 102.934 90.1397 112.4 90.175H163.676C180.3 53.6 218.587 28 263.16 28C322.987 28 371.487 74.115 371.487 131C371.487 187.885 322.987 234 263.16 234C260.68 234 258.22 233.922 255.781 233.765Z" fill="url(#paint5_linear_1_501)"/>
<path d="M263.16 233C270.446 233 277.727 232.302 284.8 230.926C291.693 229.585 298.474 227.584 304.952 224.978C311.313 222.42 317.448 219.254 323.186 215.568C328.869 211.917 334.213 207.725 339.07 203.107C343.925 198.49 348.333 193.411 352.171 188.009C356.045 182.557 359.373 176.728 362.061 170.686C364.798 164.532 366.9 158.093 368.309 151.547C369.754 144.831 370.487 137.917 370.487 131C370.487 124.082 369.754 117.169 368.309 110.452C366.9 103.906 364.798 97.4673 362.061 91.3142C359.373 85.2716 356.045 79.4433 352.171 73.991C348.333 68.5893 343.925 63.5095 339.07 58.8928C334.213 54.2752 328.869 50.0829 323.186 46.4323C317.448 42.7461 311.313 39.5801 304.952 37.0221C298.474 34.4165 291.693 32.4154 284.8 31.0742C277.727 29.6979 270.446 29 263.16 29C241.789 29 221.15 34.9523 203.473 46.2135C194.953 51.6418 187.296 58.1939 180.716 65.6878C174.095 73.2291 168.668 81.6069 164.586 90.5885L164.319 91.1747H163.675H112.4C102.826 91.1747 93.5395 93.0495 84.7977 96.747C80.596 98.5242 76.5434 100.724 72.7525 103.285C68.9974 105.822 65.4662 108.735 62.2569 111.945C59.0477 115.154 56.1342 118.685 53.5972 122.44C51.0362 126.231 48.8365 130.284 47.0593 134.485C43.3618 143.227 41.487 152.514 41.487 162.087C41.487 171.661 43.3618 180.948 47.0593 189.689C48.8365 193.891 51.0362 197.944 53.5972 201.735C56.1342 205.49 59.0477 209.021 62.2569 212.23C65.4662 215.439 68.9974 218.353 72.7525 220.89C76.5434 223.451 80.596 225.651 84.7977 227.428C93.5395 231.125 102.826 233 112.4 233H249.924C251.847 233 253.791 232.922 255.701 232.768L255.773 232.762L255.845 232.767C258.265 232.922 260.726 233 263.16 233ZM263.16 234C260.68 234 258.219 233.921 255.781 233.765C253.851 233.92 251.895 234 249.924 234H112.4C72.6836 234 40.487 201.803 40.487 162.087C40.487 122.371 72.6836 90.1747 112.4 90.1747H163.675C180.3 53.5954 218.585 28 263.16 28C322.987 28 371.487 74.1151 371.487 131C371.487 187.885 322.987 234 263.16 234Z" fill="white" fill-opacity="0.5"/>
</g>
</g>
<defs>
<filter id="filter0_f_1_501" x="111.487" y="175.295" width="199.32" height="131.705" filterUnits="userSpaceOnUse" color-interpolation-filters="sRGB">
<feFlood flood-opacity="0" result="BackgroundImageFix"/>
<feBlend mode="normal" in="SourceGraphic" in2="BackgroundImageFix" result="shape"/>
<feGaussianBlur stdDeviation="2" result="effect1_foregroundBlur_1_501"/>
</filter>
<filter id="filter1_f_1_501" x="10.0604" y="28.8269" width="160.564" height="161.468" filterUnits="userSpaceOnUse" color-interpolation-filters="sRGB">
<feFlood flood-opacity="0" result="BackgroundImageFix"/>
<feBlend mode="normal" in="SourceGraphic" in2="BackgroundImageFix" result="shape"/>
<feGaussianBlur stdDeviation="2" result="effect1_foregroundBlur_1_501"/>
</filter>
<filter id="filter2_f_1_501" x="1.48795" y="22.6858" width="112.902" height="110.185" filterUnits="userSpaceOnUse" color-interpolation-filters="sRGB">
<feFlood flood-opacity="0" result="BackgroundImageFix"/>
<feBlend mode="normal" in="SourceGraphic" in2="BackgroundImageFix" result="shape"/>
<feGaussianBlur stdDeviation="10" result="effect1_foregroundBlur_1_501"/>
</filter>
<filter id="filter3_f_1_501" x="0.569649" y="11" width="176.916" height="165" filterUnits="userSpaceOnUse" color-interpolation-filters="sRGB">
<feFlood flood-opacity="0" result="BackgroundImageFix"/>
<feBlend mode="normal" in="SourceGraphic" in2="BackgroundImageFix" result="shape"/>
<feGaussianBlur stdDeviation="1" result="effect1_foregroundBlur_1_501"/>
</filter>
<filter id="filter4_df_1_501" x="20.2188" y="0" width="391.268" height="266" filterUnits="userSpaceOnUse" color-interpolation-filters="sRGB">
<feFlood flood-opacity="0" result="BackgroundImageFix"/>
<feColorMatrix in="SourceAlpha" type="matrix" values="0 0 0 0 0 0 0 0 0 0 0 0 0 0 0 0 0 0 127 0" result="hardAlpha"/>
<feOffset dx="10" dy="2"/>
<feGaussianBlur stdDeviation="15"/>
<feColorMatrix type="matrix" values="0 0 0 0 0.258824 0 0 0 0 0.627451 0 0 0 0 0.941176 0 0 0 0.596 0"/>
<feBlend mode="normal" in2="BackgroundImageFix" result="effect1_dropShadow_1_501"/>
<feBlend mode="normal" in="SourceGraphic" in2="effect1_dropShadow_1_501" result="shape"/>
<feGaussianBlur stdDeviation="2" result="effect2_foregroundBlur_1_501"/>
</filter>
<filter id="filter5_d_1_501" x="20.2188" y="0" width="391.268" height="266" filterUnits="userSpaceOnUse" color-interpolation-filters="sRGB">
<feFlood flood-opacity="0" result="BackgroundImageFix"/>
<feColorMatrix in="SourceAlpha" type="matrix" values="0 0 0 0 0 0 0 0 0 0 0 0 0 0 0 0 0 0 127 0" result="hardAlpha"/>
<feOffset dx="10" dy="2"/>
<feGaussianBlur stdDeviation="15"/>
<feColorMatrix type="matrix" values="0 0 0 0 0.501961 0 0 0 0 0.501961 0 0 0 0 0.501961 0 0 0 0.302 0"/>
<feBlend mode="normal" in2="BackgroundImageFix" result="effect1_dropShadow_1_501"/>
<feBlend mode="normal" in="SourceGraphic" in2="effect1_dropShadow_1_501" result="shape"/>
</filter>
<linearGradient id="paint0_linear_1_501" x1="52.986" y1="13" x2="52.986" y2="30" gradientUnits="userSpaceOnUse">
<stop stop-color="#6B38FC"/>
<stop offset="1" stop-color="#9F7EFD"/>
</linearGradient>
<linearGradient id="paint1_linear_1_501" x1="167.486" y1="160" x2="167.486" y2="174" gradientUnits="userSpaceOnUse">
<stop stop-color="#6B38FC"/>
<stop offset="1" stop-color="#9F7EFD"/>
</linearGradient>
<linearGradient id="paint2_linear_1_501" x1="133.49" y1="32.605" x2="137.323" y2="46.9018" gradientUnits="userSpaceOnUse">
<stop stop-color="#6B38FC"/>
<stop offset="1" stop-color="#9F7EFD"/>
</linearGradient>
<linearGradient id="paint3_linear_1_501" x1="7.18887" y1="148.599" x2="12.3282" y2="160.705" gradientUnits="userSpaceOnUse">
<stop stop-color="#6B38FC"/>
<stop offset="1" stop-color="#9F7EFD"/>
</linearGradient>
<linearGradient id="paint4_linear_1_501" x1="130.151" y1="84.0395" x2="119.741" y2="81.6362" gradientUnits="userSpaceOnUse">
<stop stop-color="#6B38FC"/>
<stop offset="1" stop-color="#9F7EFD"/>
</linearGradient>
<linearGradient id="paint5_linear_1_501" x1="174.382" y1="53.9561" x2="240.425" y2="245.168" gradientUnits="userSpaceOnUse">
<stop stop-color="white" stop-opacity="0.596"/>
<stop offset="1" stop-color="#F7F7F7" stop-opacity="0.204"/>
</linearGradient>
</defs>
</svg>
