<svg width="392" height="337" viewBox="0 0 392 337" fill="none" xmlns="http://www.w3.org/2000/svg">
<g filter="url(#filter0_f_1_1298)">
<path d="M186.986 189.204V318.75" stroke="#42A0F0" stroke-width="10" stroke-linecap="round"/>
<path d="M186.726 220.87L209.037 197.84" stroke="#42A0F0" stroke-width="10" stroke-linecap="round"/>
<path d="M186.726 220.87L163.696 197.84" stroke="#42A0F0" stroke-width="10" stroke-linecap="round"/>
<path d="M186.726 289.962L209.037 312.992" stroke="#42A0F0" stroke-width="10" stroke-linecap="round"/>
<path d="M186.726 289.962L163.696 312.992" stroke="#42A0F0" stroke-width="10" stroke-linecap="round"/>
<path d="M242.771 222.127L130.581 286.9" stroke="#42A0F0" stroke-width="10" stroke-linecap="round"/>
<path d="M215.218 237.735L246.318 245.542" stroke="#42A0F0" stroke-width="10" stroke-linecap="round"/>
<path d="M215.218 237.735L223.647 206.275" stroke="#42A0F0" stroke-width="10" stroke-linecap="round"/>
<path d="M155.382 272.281L146.593 303.118" stroke="#42A0F0" stroke-width="10" stroke-linecap="round"/>
<path d="M155.382 272.281L123.923 263.851" stroke="#42A0F0" stroke-width="10" stroke-linecap="round"/>
<path d="M242.152 286.9L129.962 222.127" stroke="#42A0F0" stroke-width="10" stroke-linecap="round"/>
<path d="M214.858 270.842L223.647 301.679" stroke="#42A0F0" stroke-width="10" stroke-linecap="round"/>
<path d="M214.858 270.842L246.318 262.412" stroke="#42A0F0" stroke-width="10" stroke-linecap="round"/>
<path d="M155.023 236.296L123.923 244.103" stroke="#42A0F0" stroke-width="10" stroke-linecap="round"/>
<path d="M155.023 236.296L146.593 204.836" stroke="#42A0F0" stroke-width="10" stroke-linecap="round"/>
</g>
<g filter="url(#filter1_f_1_1298)">
<path d="M139.418 163.295V172.143" stroke="#42A0F0" stroke-linecap="round"/>
<path d="M139.226 165.454L140.665 164.734" stroke="#42A0F0" stroke-linecap="round"/>
<path d="M139.226 165.454L137.067 164.734" stroke="#42A0F0" stroke-linecap="round"/>
<path d="M139.226 170.492L140.665 171.212" stroke="#42A0F0" stroke-linecap="round"/>
<path d="M139.226 170.492L137.067 171.212" stroke="#42A0F0" stroke-linecap="round"/>
<path d="M143.228 165.544L135.565 169.968" stroke="#42A0F0" stroke-linecap="round"/>
<path d="M141.345 166.61L143.47 167.143" stroke="#42A0F0" stroke-linecap="round"/>
<path d="M141.345 166.61L141.921 164.461" stroke="#42A0F0" stroke-linecap="round"/>
<path d="M137.259 168.969L136.658 171.076" stroke="#42A0F0" stroke-linecap="round"/>
<path d="M137.259 168.969L135.11 168.394" stroke="#42A0F0" stroke-linecap="round"/>
<path d="M143.185 169.968L135.522 165.544" stroke="#42A0F0" stroke-linecap="round"/>
<path d="M141.32 168.871L141.921 170.977" stroke="#42A0F0" stroke-linecap="round"/>
<path d="M141.32 168.871L143.469 168.295" stroke="#42A0F0" stroke-linecap="round"/>
<path d="M137.234 166.511L135.109 167.045" stroke="#42A0F0" stroke-linecap="round"/>
<path d="M137.234 166.511L136.658 164.363" stroke="#42A0F0" stroke-linecap="round"/>
</g>
<g filter="url(#filter2_f_1_1298)">
<path d="M261.488 182.885V198.053" stroke="#42A0F0" stroke-linecap="round"/>
<path d="M260.856 186.326L263.735 185.606" stroke="#42A0F0" stroke-linecap="round"/>
<path d="M260.856 186.326L257.257 185.606" stroke="#42A0F0" stroke-linecap="round"/>
<path d="M260.856 194.962L263.735 196.401" stroke="#42A0F0" stroke-linecap="round"/>
<path d="M260.856 194.962L257.257 196.401" stroke="#42A0F0" stroke-linecap="round"/>
<path d="M268.02 186.74L254.884 194.324" stroke="#42A0F0" stroke-linecap="round"/>
<path d="M264.794 188.566L268.434 189.48" stroke="#42A0F0" stroke-linecap="round"/>
<path d="M264.794 188.566L265.78 184.884" stroke="#42A0F0" stroke-linecap="round"/>
<path d="M257.787 192.611L256.759 196.222" stroke="#42A0F0" stroke-linecap="round"/>
<path d="M257.787 192.611L254.105 191.625" stroke="#42A0F0" stroke-linecap="round"/>
<path d="M267.947 194.324L254.811 186.74" stroke="#42A0F0" stroke-linecap="round"/>
<path d="M264.752 192.443L265.78 196.053" stroke="#42A0F0" stroke-linecap="round"/>
<path d="M264.752 192.443L268.434 191.457" stroke="#42A0F0" stroke-linecap="round"/>
<path d="M257.745 188.398L254.105 189.312" stroke="#42A0F0" stroke-linecap="round"/>
<path d="M257.746 188.398L256.759 184.715" stroke="#42A0F0" stroke-linecap="round"/>
</g>
<g filter="url(#filter3_f_1_1298)">
<path d="M252.144 294.439V306.892" stroke="#42A0F0" stroke-linecap="round"/>
<path d="M251.499 297.16L253.658 296.44" stroke="#42A0F0" stroke-linecap="round"/>
<path d="M251.499 297.16L248.62 296.44" stroke="#42A0F0" stroke-linecap="round"/>
<path d="M251.499 304.357L253.658 305.796" stroke="#42A0F0" stroke-linecap="round"/>
<path d="M251.499 304.357L248.62 305.796" stroke="#42A0F0" stroke-linecap="round"/>
<path d="M257.507 297.604L246.722 303.831" stroke="#42A0F0" stroke-linecap="round"/>
<path d="M254.858 299.104L257.848 299.855" stroke="#42A0F0" stroke-linecap="round"/>
<path d="M254.858 299.104L255.668 296.08" stroke="#42A0F0" stroke-linecap="round"/>
<path d="M249.107 302.425L248.262 305.39" stroke="#42A0F0" stroke-linecap="round"/>
<path d="M249.107 302.425L246.082 301.615" stroke="#42A0F0" stroke-linecap="round"/>
<path d="M257.447 303.83L246.662 297.604" stroke="#42A0F0" stroke-linecap="round"/>
<path d="M254.823 302.286L255.668 305.251" stroke="#42A0F0" stroke-linecap="round"/>
<path d="M254.823 302.286L257.847 301.476" stroke="#42A0F0" stroke-linecap="round"/>
<path d="M249.072 298.966L246.082 299.717" stroke="#42A0F0" stroke-linecap="round"/>
<path d="M249.072 298.966L248.261 295.942" stroke="#42A0F0" stroke-linecap="round"/>
</g>
<g filter="url(#filter4_f_1_1298)">
<path d="M149.887 323.227V334.196" stroke="#42A0F0" stroke-linecap="round"/>
<path d="M149.301 325.948L151.46 325.228" stroke="#42A0F0" stroke-linecap="round"/>
<path d="M149.301 325.948L147.142 325.228" stroke="#42A0F0" stroke-linecap="round"/>
<path d="M149.301 331.705L151.46 333.144" stroke="#42A0F0" stroke-linecap="round"/>
<path d="M149.301 331.705L147.142 333.144" stroke="#42A0F0" stroke-linecap="round"/>
<path d="M154.611 326.015L145.112 331.499" stroke="#42A0F0" stroke-linecap="round"/>
<path d="M152.278 327.336L154.911 327.997" stroke="#42A0F0" stroke-linecap="round"/>
<path d="M152.278 327.336L152.992 324.672" stroke="#42A0F0" stroke-linecap="round"/>
<path d="M147.211 330.262L146.467 332.873" stroke="#42A0F0" stroke-linecap="round"/>
<path d="M147.211 330.262L144.547 329.548" stroke="#42A0F0" stroke-linecap="round"/>
<path d="M154.558 331.499L145.059 326.014" stroke="#42A0F0" stroke-linecap="round"/>
<path d="M152.247 330.139L152.991 332.75" stroke="#42A0F0" stroke-linecap="round"/>
<path d="M152.247 330.139L154.911 329.426" stroke="#42A0F0" stroke-linecap="round"/>
<path d="M147.18 327.214L144.547 327.875" stroke="#42A0F0" stroke-linecap="round"/>
<path d="M147.18 327.214L146.466 324.55" stroke="#42A0F0" stroke-linecap="round"/>
</g>
<g filter="url(#filter5_f_1_1298)">
<path d="M108.496 277.166V286.063" stroke="#42A0F0" stroke-linecap="round"/>
<path d="M108.279 279.167L109.718 278.447" stroke="#42A0F0" stroke-linecap="round"/>
<path d="M108.279 279.167L106.12 278.447" stroke="#42A0F0" stroke-linecap="round"/>
<path d="M108.279 284.205L109.718 284.925" stroke="#42A0F0" stroke-linecap="round"/>
<path d="M108.279 284.205L106.12 284.925" stroke="#42A0F0" stroke-linecap="round"/>
<path d="M112.327 279.427L104.622 283.875" stroke="#42A0F0" stroke-linecap="round"/>
<path d="M110.434 280.499L112.57 281.035" stroke="#42A0F0" stroke-linecap="round"/>
<path d="M110.434 280.5L111.013 278.339" stroke="#42A0F0" stroke-linecap="round"/>
<path d="M106.325 282.872L105.721 284.99" stroke="#42A0F0" stroke-linecap="round"/>
<path d="M106.325 282.872L104.164 282.293" stroke="#42A0F0" stroke-linecap="round"/>
<path d="M112.284 283.875L104.579 279.426" stroke="#42A0F0" stroke-linecap="round"/>
<path d="M110.409 282.772L111.013 284.89" stroke="#42A0F0" stroke-linecap="round"/>
<path d="M110.409 282.773L112.57 282.193" stroke="#42A0F0" stroke-linecap="round"/>
<path d="M106.3 280.4L104.164 280.936" stroke="#42A0F0" stroke-linecap="round"/>
<path d="M106.3 280.4L105.721 278.239" stroke="#42A0F0" stroke-linecap="round"/>
</g>
<g filter="url(#filter6_f_1_1298)">
<path d="M103.5 171C144.093 171 177 138.093 177 97.5C177 56.9071 144.093 24 103.5 24C62.9071 24 30 56.9071 30 97.5C30 138.093 62.9071 171 103.5 171Z" fill="#FA9E42"/>
</g>
<g filter="url(#filter7_f_1_1298)">
<path d="M103.5 188C153.482 188 194 147.482 194 97.5C194 47.5182 153.482 7 103.5 7C53.5182 7 13 47.5182 13 97.5C13 147.482 53.5182 188 103.5 188Z" stroke="#FA9E42" stroke-width="10" stroke-linecap="round" stroke-dasharray="1 66"/>
</g>
<g filter="url(#filter8_f_1_1298)">
<path d="M95.9468 82.824C121.689 69.151 136.251 46.1934 128.472 31.5468C120.692 16.9002 93.5174 16.1109 67.7749 29.7839C42.0324 43.4569 27.4704 66.4144 35.2499 81.061C43.0293 95.7076 70.2043 96.4969 95.9468 82.824Z" fill="#F8E36F"/>
</g>
<g filter="url(#filter9_df_1_1298)">
<g filter="url(#filter10_d_1_1298)">
<path d="M236.116 248.765C234.183 248.92 232.23 248.999 230.259 249H92.735C83.2688 249.035 73.8887 247.201 65.1328 243.603C56.377 240.005 48.4177 234.714 41.7116 228.032C35.0054 221.351 29.6843 213.412 26.0536 204.669C22.4228 195.927 20.5538 186.554 20.5538 177.087C20.5538 167.621 22.4228 158.248 26.0536 149.506C29.6843 140.763 35.0054 132.824 41.7116 126.143C48.4177 119.461 56.377 114.17 65.1328 110.572C73.8887 106.974 83.2688 105.14 92.735 105.175H144.011C160.635 68.6 198.922 43 243.495 43C303.322 43 351.822 89.115 351.822 146C351.822 202.885 303.322 249 243.495 249C241.015 249 238.555 248.922 236.116 248.765Z" fill="url(#paint0_linear_1_1298)"/>
<path d="M243.495 248C250.781 248 258.062 247.302 265.135 245.926C272.028 244.585 278.809 242.584 285.287 239.978C291.648 237.42 297.783 234.254 303.521 230.568C309.204 226.917 314.548 222.725 319.405 218.107C324.26 213.49 328.668 208.411 332.506 203.009C336.38 197.557 339.708 191.728 342.396 185.686C345.133 179.532 347.235 173.093 348.644 166.547C350.089 159.831 350.822 152.917 350.822 146C350.822 139.082 350.089 132.169 348.644 125.452C347.235 118.906 345.133 112.467 342.396 106.314C339.708 100.272 336.38 94.4433 332.506 88.991C328.668 83.5893 324.26 78.5095 319.405 73.8928C314.548 69.2752 309.204 65.0829 303.521 61.4323C297.783 57.7461 291.648 54.5801 285.287 52.0221C278.809 49.4165 272.028 47.4154 265.135 46.0742C258.062 44.6979 250.781 44 243.495 44C222.124 44 201.485 49.9523 183.808 61.2135C175.288 66.6418 167.631 73.1939 161.051 80.6878C154.43 88.2291 149.003 96.6069 144.921 105.588L144.654 106.175H144.01H92.7347C83.1611 106.175 73.8745 108.049 65.1326 111.747C60.931 113.524 56.8784 115.724 53.0875 118.285C49.3324 120.822 45.8011 123.735 42.5919 126.945C39.3827 130.154 36.4692 133.685 33.9322 137.44C31.3711 141.231 29.1715 145.284 27.3943 149.485C23.6968 158.227 21.822 167.514 21.822 177.087C21.822 186.661 23.6968 195.948 27.3943 204.689C29.1715 208.891 31.3711 212.944 33.9322 216.735C36.4692 220.49 39.3827 224.021 42.5919 227.23C45.8011 230.439 49.3324 233.353 53.0875 235.89C56.8784 238.451 60.931 240.651 65.1326 242.428C73.8745 246.125 83.1611 248 92.7347 248H230.259C232.182 248 234.126 247.922 236.036 247.768L236.108 247.762L236.18 247.767C238.6 247.922 241.061 248 243.495 248ZM243.495 249C241.015 249 238.554 248.921 236.116 248.765C234.186 248.92 232.23 249 230.259 249H92.7347C53.0186 249 20.822 216.803 20.822 177.087C20.822 137.371 53.0186 105.175 92.7347 105.175H144.01C160.635 68.5954 198.92 43 243.495 43C303.322 43 351.822 89.1151 351.822 146C351.822 202.885 303.322 249 243.495 249Z" fill="white" fill-opacity="0.5"/>
</g>
</g>
<defs>
<filter id="filter0_f_1_1298" x="114.921" y="180.204" width="140.398" height="147.546" filterUnits="userSpaceOnUse" color-interpolation-filters="sRGB">
<feFlood flood-opacity="0" result="BackgroundImageFix"/>
<feBlend mode="normal" in="SourceGraphic" in2="BackgroundImageFix" result="shape"/>
<feGaussianBlur stdDeviation="2" result="effect1_foregroundBlur_1_1298"/>
</filter>
<filter id="filter1_f_1_1298" x="132.609" y="160.795" width="13.3604" height="13.848" filterUnits="userSpaceOnUse" color-interpolation-filters="sRGB">
<feFlood flood-opacity="0" result="BackgroundImageFix"/>
<feBlend mode="normal" in="SourceGraphic" in2="BackgroundImageFix" result="shape"/>
<feGaussianBlur stdDeviation="1" result="effect1_foregroundBlur_1_1298"/>
</filter>
<filter id="filter2_f_1_1298" x="251.604" y="180.385" width="19.3301" height="20.168" filterUnits="userSpaceOnUse" color-interpolation-filters="sRGB">
<feFlood flood-opacity="0" result="BackgroundImageFix"/>
<feBlend mode="normal" in="SourceGraphic" in2="BackgroundImageFix" result="shape"/>
<feGaussianBlur stdDeviation="1" result="effect1_foregroundBlur_1_1298"/>
</filter>
<filter id="filter3_f_1_1298" x="243.582" y="291.939" width="16.7665" height="17.453" filterUnits="userSpaceOnUse" color-interpolation-filters="sRGB">
<feFlood flood-opacity="0" result="BackgroundImageFix"/>
<feBlend mode="normal" in="SourceGraphic" in2="BackgroundImageFix" result="shape"/>
<feGaussianBlur stdDeviation="1" result="effect1_foregroundBlur_1_1298"/>
</filter>
<filter id="filter4_f_1_1298" x="142.047" y="320.727" width="15.3649" height="15.969" filterUnits="userSpaceOnUse" color-interpolation-filters="sRGB">
<feFlood flood-opacity="0" result="BackgroundImageFix"/>
<feBlend mode="normal" in="SourceGraphic" in2="BackgroundImageFix" result="shape"/>
<feGaussianBlur stdDeviation="1" result="effect1_foregroundBlur_1_1298"/>
</filter>
<filter id="filter5_f_1_1298" x="101.664" y="274.666" width="13.4067" height="13.897" filterUnits="userSpaceOnUse" color-interpolation-filters="sRGB">
<feFlood flood-opacity="0" result="BackgroundImageFix"/>
<feBlend mode="normal" in="SourceGraphic" in2="BackgroundImageFix" result="shape"/>
<feGaussianBlur stdDeviation="1" result="effect1_foregroundBlur_1_1298"/>
</filter>
<filter id="filter6_f_1_1298" x="26" y="20" width="155" height="155" filterUnits="userSpaceOnUse" color-interpolation-filters="sRGB">
<feFlood flood-opacity="0" result="BackgroundImageFix"/>
<feBlend mode="normal" in="SourceGraphic" in2="BackgroundImageFix" result="shape"/>
<feGaussianBlur stdDeviation="2" result="effect1_foregroundBlur_1_1298"/>
</filter>
<filter id="filter7_f_1_1298" x="6" y="0" width="195" height="195" filterUnits="userSpaceOnUse" color-interpolation-filters="sRGB">
<feFlood flood-opacity="0" result="BackgroundImageFix"/>
<feBlend mode="normal" in="SourceGraphic" in2="BackgroundImageFix" result="shape"/>
<feGaussianBlur stdDeviation="1" result="effect1_foregroundBlur_1_1298"/>
</filter>
<filter id="filter8_f_1_1298" x="13.1552" y="0.0239258" width="137.411" height="112.56" filterUnits="userSpaceOnUse" color-interpolation-filters="sRGB">
<feFlood flood-opacity="0" result="BackgroundImageFix"/>
<feBlend mode="normal" in="SourceGraphic" in2="BackgroundImageFix" result="shape"/>
<feGaussianBlur stdDeviation="10" result="effect1_foregroundBlur_1_1298"/>
</filter>
<filter id="filter9_df_1_1298" x="0.553833" y="15" width="391.268" height="266" filterUnits="userSpaceOnUse" color-interpolation-filters="sRGB">
<feFlood flood-opacity="0" result="BackgroundImageFix"/>
<feColorMatrix in="SourceAlpha" type="matrix" values="0 0 0 0 0 0 0 0 0 0 0 0 0 0 0 0 0 0 127 0" result="hardAlpha"/>
<feOffset dx="10" dy="2"/>
<feGaussianBlur stdDeviation="15"/>
<feColorMatrix type="matrix" values="0 0 0 0 0.258824 0 0 0 0 0.627451 0 0 0 0 0.941176 0 0 0 0.596 0"/>
<feBlend mode="normal" in2="BackgroundImageFix" result="effect1_dropShadow_1_1298"/>
<feBlend mode="normal" in="SourceGraphic" in2="effect1_dropShadow_1_1298" result="shape"/>
<feGaussianBlur stdDeviation="2" result="effect2_foregroundBlur_1_1298"/>
</filter>
<filter id="filter10_d_1_1298" x="0.553833" y="15" width="391.268" height="266" filterUnits="userSpaceOnUse" color-interpolation-filters="sRGB">
<feFlood flood-opacity="0" result="BackgroundImageFix"/>
<feColorMatrix in="SourceAlpha" type="matrix" values="0 0 0 0 0 0 0 0 0 0 0 0 0 0 0 0 0 0 127 0" result="hardAlpha"/>
<feOffset dx="10" dy="2"/>
<feGaussianBlur stdDeviation="15"/>
<feColorMatrix type="matrix" values="0 0 0 0 0.501961 0 0 0 0 0.501961 0 0 0 0 0.501961 0 0 0 0.302 0"/>
<feBlend mode="normal" in2="BackgroundImageFix" result="effect1_dropShadow_1_1298"/>
<feBlend mode="normal" in="SourceGraphic" in2="effect1_dropShadow_1_1298" result="shape"/>
</filter>
<linearGradient id="paint0_linear_1_1298" x1="154.717" y1="68.9561" x2="220.76" y2="260.168" gradientUnits="userSpaceOnUse">
<stop stop-color="white" stop-opacity="0.596"/>
<stop offset="1" stop-color="#F7F7F7" stop-opacity="0.204"/>
</linearGradient>
</defs>
</svg>
