<svg width="394" height="302" viewBox="0 0 394 302" fill="none" xmlns="http://www.w3.org/2000/svg">
<g filter="url(#filter0_f_1_43)">
<path d="M128.253 206.835C128.782 207.318 117.713 231.126 111.281 238.525C104.849 245.924 96.9399 249.575 93.6132 246.683C90.2864 243.791 92.8002 235.452 99.2328 228.052C105.665 220.652 127.725 206.351 128.253 206.835Z" fill="#42A0F0"/>
<path d="M100.378 233.023C101.024 234.057 103.261 233.825 105.374 232.504C107.487 231.184 108.677 229.275 108.031 228.241C107.384 227.207 105.147 227.439 103.034 228.759C100.921 230.08 99.7316 231.988 100.378 233.023Z" fill="white"/>
<path d="M196.253 206.835C196.782 207.318 185.713 231.126 179.281 238.525C172.849 245.924 164.94 249.575 161.613 246.683C158.286 243.791 160.8 235.452 167.233 228.052C173.665 220.652 195.725 206.351 196.253 206.835Z" fill="#42A0F0"/>
<path d="M168.378 233.023C169.024 234.057 171.261 233.825 173.374 232.504C175.487 231.184 176.677 229.275 176.031 228.241C175.384 227.207 173.147 227.439 171.034 228.759C168.921 230.08 167.732 231.988 168.378 233.023Z" fill="white"/>
<path d="M204.253 256.835C204.782 257.318 193.713 281.126 187.281 288.525C180.849 295.924 172.94 299.575 169.613 296.683C166.286 293.791 168.8 285.452 175.233 278.052C181.665 270.652 203.725 256.351 204.253 256.835Z" fill="#42A0F0"/>
<path d="M176.378 283.023C177.024 284.057 179.261 283.825 181.374 282.504C183.487 281.184 184.677 279.275 184.031 278.241C183.384 277.207 181.147 277.439 179.034 278.759C176.921 280.08 175.732 281.988 176.378 283.023Z" fill="white"/>
<path d="M128.253 256.835C128.782 257.318 117.713 281.126 111.281 288.525C104.849 295.924 96.9399 299.575 93.6132 296.683C90.2864 293.791 92.8002 285.452 99.2328 278.052C105.665 270.652 127.725 256.351 128.253 256.835Z" fill="#42A0F0"/>
<path d="M100.378 283.023C101.024 284.057 103.261 283.825 105.374 282.504C107.487 281.184 108.677 279.275 108.031 278.241C107.384 277.207 105.147 277.439 103.034 278.759C100.921 280.08 99.7316 281.988 100.378 283.023Z" fill="white"/>
</g>
<g filter="url(#filter1_f_1_43)">
<path d="M265.533 211.557H297.04L278.927 238.157L300.105 238.557L255.654 291.168L266.425 251.057H246.707L265.533 211.557Z" fill="url(#paint0_linear_1_43)"/>
</g>
<g filter="url(#filter2_f_1_43)">
<path d="M90.487 184.295C75.2647 184.316 60.3894 179.749 47.801 171.19C36.3707 163.443 27.2384 152.76 21.3638 140.263C15.4892 127.767 13.0893 113.919 14.4162 100.174C15.7431 86.43 20.748 73.2968 28.9047 62.155C37.0614 51.0133 48.0688 42.2745 60.77 36.857C70.1662 32.8591 80.2756 30.8077 90.487 30.827C93.4678 30.8271 96.4462 31.0001 99.407 31.345C97.6808 35.1196 96.36 39.0667 95.467 43.12C94.5491 47.3035 94.0867 51.5741 94.088 55.857C94.0688 67.6102 97.5779 79.0985 104.161 88.835C108.405 95.1149 113.813 100.523 120.093 104.767C123.249 106.899 126.605 108.72 130.112 110.205C137.375 113.279 145.184 114.855 153.071 114.84C157.634 114.842 162.182 114.317 166.624 113.275C165.576 127.709 160.46 141.551 151.869 153.197C149.09 156.965 145.974 160.472 142.559 163.676C128.466 176.938 109.839 184.315 90.487 184.295Z" fill="#713FFD"/>
</g>
<g filter="url(#filter3_f_1_43)">
<path d="M77.0539 97.0076C94.1917 81.5767 99.5265 59.5627 88.9696 47.838C78.4126 36.1133 55.9616 39.1178 38.8238 54.5488C21.6859 69.9798 16.3511 91.9937 26.9081 103.718C37.465 115.443 59.9161 112.439 77.0539 97.0076Z" fill="#A586FC"/>
</g>
<g filter="url(#filter4_f_1_43)">
<path d="M52.986 11L55.551 17.2L62.486 19.5L55.551 21.8L52.986 28L50.421 21.8L43.486 19.5L50.421 17.2L52.986 11Z" fill="url(#paint1_linear_1_43)"/>
<path d="M167.486 158L169.646 163.11L175.486 165L169.646 166.89L167.486 172L165.326 166.89L159.486 165L165.326 163.11L167.486 158Z" fill="url(#paint2_linear_1_43)"/>
<path d="M133.489 30.6052L137.03 35.2472L143.344 35.6252L138.066 39.1112L137.322 44.902L133.781 40.2497L127.467 39.8716L132.745 36.3856L133.489 30.6052Z" fill="url(#paint3_linear_1_43)"/>
<path d="M7.1838 146.601L11.0048 150.196L16.9482 149.602L12.3921 153.464L12.3231 158.707L8.51299 155.109L2.56965 155.704L7.1265 151.843L7.1838 146.601Z" fill="url(#paint4_linear_1_43)"/>
<path d="M130.152 82.0386L125.953 82.8898L123.468 87.2424L123.142 82.241L119.741 79.6352L123.943 78.7866L126.427 74.4338L126.75 79.4347L130.152 82.0386Z" fill="url(#paint5_linear_1_43)"/>
</g>
<g filter="url(#filter5_df_1_43)">
<g filter="url(#filter6_d_1_43)">
<path d="M237.78 233.765C235.847 233.92 233.894 233.999 231.923 234H94.399C84.9328 234.035 75.5527 232.201 66.7968 228.603C58.041 225.005 50.0817 219.714 43.3756 213.032C36.6694 206.351 31.3483 198.412 27.7176 189.669C24.0868 180.927 22.2178 171.554 22.2178 162.087C22.2178 152.621 24.0868 143.248 27.7176 134.506C31.3483 125.763 36.6694 117.824 43.3756 111.143C50.0817 104.461 58.041 99.17 66.7968 95.5718C75.5527 91.9737 84.9328 90.1397 94.399 90.175H145.675C162.299 53.6 200.586 28 245.159 28C304.986 28 353.486 74.115 353.486 131C353.486 187.885 304.986 234 245.159 234C242.679 234 240.219 233.922 237.78 233.765Z" fill="url(#paint6_linear_1_43)"/>
<path d="M245.159 233C252.445 233 259.726 232.302 266.799 230.926C273.692 229.585 280.473 227.584 286.951 224.978C293.312 222.42 299.447 219.254 305.185 215.568C310.868 211.917 316.212 207.725 321.069 203.107C325.924 198.49 330.332 193.411 334.17 188.009C338.044 182.557 341.372 176.728 344.06 170.686C346.797 164.532 348.899 158.093 350.308 151.547C351.753 144.831 352.486 137.917 352.486 131C352.486 124.082 351.753 117.169 350.308 110.452C348.899 103.906 346.797 97.4673 344.06 91.3142C341.372 85.2716 338.044 79.4433 334.17 73.991C330.332 68.5893 325.924 63.5095 321.069 58.8928C316.212 54.2752 310.868 50.0829 305.185 46.4323C299.447 42.7461 293.312 39.5801 286.951 37.0221C280.473 34.4165 273.692 32.4154 266.799 31.0742C259.726 29.6979 252.445 29 245.159 29C223.788 29 203.149 34.9523 185.472 46.2135C176.952 51.6418 169.295 58.1939 162.715 65.6878C156.094 73.2291 150.667 81.6069 146.585 90.5885L146.318 91.1747H145.674H94.3987C84.8251 91.1747 75.5385 93.0495 66.7966 96.747C62.595 98.5242 58.5424 100.724 54.7515 103.285C50.9964 105.822 47.4651 108.735 44.2559 111.945C41.0467 115.154 38.1332 118.685 35.5962 122.44C33.0351 126.231 30.8355 130.284 29.0583 134.485C25.3608 143.227 23.486 152.514 23.486 162.087C23.486 171.661 25.3608 180.948 29.0583 189.689C30.8355 193.891 33.0351 197.944 35.5962 201.735C38.1332 205.49 41.0467 209.021 44.2559 212.23C47.4651 215.439 50.9964 218.353 54.7515 220.89C58.5424 223.451 62.595 225.651 66.7966 227.428C75.5385 231.125 84.8251 233 94.3987 233H231.923C233.846 233 235.79 232.922 237.7 232.768L237.772 232.762L237.844 232.767C240.264 232.922 242.725 233 245.159 233ZM245.159 234C242.679 234 240.218 233.921 237.78 233.765C235.85 233.92 233.894 234 231.923 234H94.3987C54.6826 234 22.486 201.803 22.486 162.087C22.486 122.371 54.6826 90.1747 94.3987 90.1747H145.674C162.299 53.5954 200.584 28 245.159 28C304.986 28 353.486 74.1151 353.486 131C353.486 187.885 304.986 234 245.159 234Z" fill="white" fill-opacity="0.5"/>
</g>
</g>
<defs>
<filter id="filter0_f_1_43" x="88.1441" y="202.823" width="120.127" height="98.8521" filterUnits="userSpaceOnUse" color-interpolation-filters="sRGB">
<feFlood flood-opacity="0" result="BackgroundImageFix"/>
<feBlend mode="normal" in="SourceGraphic" in2="BackgroundImageFix" result="shape"/>
<feGaussianBlur stdDeviation="2" result="effect1_foregroundBlur_1_43"/>
</filter>
<filter id="filter1_f_1_43" x="242.707" y="207.557" width="61.398" height="87.6111" filterUnits="userSpaceOnUse" color-interpolation-filters="sRGB">
<feFlood flood-opacity="0" result="BackgroundImageFix"/>
<feBlend mode="normal" in="SourceGraphic" in2="BackgroundImageFix" result="shape"/>
<feGaussianBlur stdDeviation="2" result="effect1_foregroundBlur_1_43"/>
</filter>
<filter id="filter2_f_1_43" x="10.0604" y="26.8269" width="160.564" height="161.468" filterUnits="userSpaceOnUse" color-interpolation-filters="sRGB">
<feFlood flood-opacity="0" result="BackgroundImageFix"/>
<feBlend mode="normal" in="SourceGraphic" in2="BackgroundImageFix" result="shape"/>
<feGaussianBlur stdDeviation="2" result="effect1_foregroundBlur_1_43"/>
</filter>
<filter id="filter3_f_1_43" x="1.48795" y="20.6858" width="112.902" height="110.185" filterUnits="userSpaceOnUse" color-interpolation-filters="sRGB">
<feFlood flood-opacity="0" result="BackgroundImageFix"/>
<feBlend mode="normal" in="SourceGraphic" in2="BackgroundImageFix" result="shape"/>
<feGaussianBlur stdDeviation="10" result="effect1_foregroundBlur_1_43"/>
</filter>
<filter id="filter4_f_1_43" x="0.569641" y="9" width="176.916" height="165" filterUnits="userSpaceOnUse" color-interpolation-filters="sRGB">
<feFlood flood-opacity="0" result="BackgroundImageFix"/>
<feBlend mode="normal" in="SourceGraphic" in2="BackgroundImageFix" result="shape"/>
<feGaussianBlur stdDeviation="1" result="effect1_foregroundBlur_1_43"/>
</filter>
<filter id="filter5_df_1_43" x="2.21783" y="0" width="391.268" height="266" filterUnits="userSpaceOnUse" color-interpolation-filters="sRGB">
<feFlood flood-opacity="0" result="BackgroundImageFix"/>
<feColorMatrix in="SourceAlpha" type="matrix" values="0 0 0 0 0 0 0 0 0 0 0 0 0 0 0 0 0 0 127 0" result="hardAlpha"/>
<feOffset dx="10" dy="2"/>
<feGaussianBlur stdDeviation="15"/>
<feColorMatrix type="matrix" values="0 0 0 0 0.258824 0 0 0 0 0.627451 0 0 0 0 0.941176 0 0 0 0.596 0"/>
<feBlend mode="normal" in2="BackgroundImageFix" result="effect1_dropShadow_1_43"/>
<feBlend mode="normal" in="SourceGraphic" in2="effect1_dropShadow_1_43" result="shape"/>
<feGaussianBlur stdDeviation="2" result="effect2_foregroundBlur_1_43"/>
</filter>
<filter id="filter6_d_1_43" x="2.21783" y="0" width="391.268" height="266" filterUnits="userSpaceOnUse" color-interpolation-filters="sRGB">
<feFlood flood-opacity="0" result="BackgroundImageFix"/>
<feColorMatrix in="SourceAlpha" type="matrix" values="0 0 0 0 0 0 0 0 0 0 0 0 0 0 0 0 0 0 127 0" result="hardAlpha"/>
<feOffset dx="10" dy="2"/>
<feGaussianBlur stdDeviation="15"/>
<feColorMatrix type="matrix" values="0 0 0 0 0.501961 0 0 0 0 0.501961 0 0 0 0 0.501961 0 0 0 0.302 0"/>
<feBlend mode="normal" in2="BackgroundImageFix" result="effect1_dropShadow_1_43"/>
<feBlend mode="normal" in="SourceGraphic" in2="effect1_dropShadow_1_43" result="shape"/>
</filter>
<linearGradient id="paint0_linear_1_43" x1="268.493" y1="251.363" x2="243.551" y2="242.219" gradientUnits="userSpaceOnUse">
<stop stop-color="#FFD100"/>
<stop offset="1" stop-color="#FFF0AA"/>
</linearGradient>
<linearGradient id="paint1_linear_1_43" x1="52.986" y1="11" x2="52.986" y2="28" gradientUnits="userSpaceOnUse">
<stop stop-color="#6B38FC"/>
<stop offset="1" stop-color="#9F7EFD"/>
</linearGradient>
<linearGradient id="paint2_linear_1_43" x1="167.486" y1="158" x2="167.486" y2="172" gradientUnits="userSpaceOnUse">
<stop stop-color="#6B38FC"/>
<stop offset="1" stop-color="#9F7EFD"/>
</linearGradient>
<linearGradient id="paint3_linear_1_43" x1="133.49" y1="30.6048" x2="137.323" y2="44.9016" gradientUnits="userSpaceOnUse">
<stop stop-color="#6B38FC"/>
<stop offset="1" stop-color="#9F7EFD"/>
</linearGradient>
<linearGradient id="paint4_linear_1_43" x1="7.18887" y1="146.599" x2="12.3282" y2="158.705" gradientUnits="userSpaceOnUse">
<stop stop-color="#6B38FC"/>
<stop offset="1" stop-color="#9F7EFD"/>
</linearGradient>
<linearGradient id="paint5_linear_1_43" x1="130.151" y1="82.0395" x2="119.741" y2="79.6362" gradientUnits="userSpaceOnUse">
<stop stop-color="#6B38FC"/>
<stop offset="1" stop-color="#9F7EFD"/>
</linearGradient>
<linearGradient id="paint6_linear_1_43" x1="156.381" y1="53.9561" x2="222.424" y2="245.168" gradientUnits="userSpaceOnUse">
<stop stop-color="white" stop-opacity="0.596"/>
<stop offset="1" stop-color="#F7F7F7" stop-opacity="0.204"/>
</linearGradient>
</defs>
</svg>
