<svg width="392" height="364" viewBox="0 0 392 364" fill="none" xmlns="http://www.w3.org/2000/svg">
<g filter="url(#filter0_f_1_1084)">
<path d="M138.865 165.295V174.143" stroke="#42A0F0" stroke-linecap="round"/>
<path d="M138.673 167.454L140.112 166.734" stroke="#42A0F0" stroke-linecap="round"/>
<path d="M138.673 167.454L136.514 166.734" stroke="#42A0F0" stroke-linecap="round"/>
<path d="M138.673 172.492L140.112 173.212" stroke="#42A0F0" stroke-linecap="round"/>
<path d="M138.673 172.492L136.514 173.212" stroke="#42A0F0" stroke-linecap="round"/>
<path d="M142.675 167.544L135.012 171.968" stroke="#42A0F0" stroke-linecap="round"/>
<path d="M140.792 168.61L142.917 169.143" stroke="#42A0F0" stroke-linecap="round"/>
<path d="M140.792 168.61L141.368 166.461" stroke="#42A0F0" stroke-linecap="round"/>
<path d="M136.706 170.969L136.105 173.076" stroke="#42A0F0" stroke-linecap="round"/>
<path d="M136.706 170.969L134.557 170.394" stroke="#42A0F0" stroke-linecap="round"/>
<path d="M142.632 171.968L134.969 167.544" stroke="#42A0F0" stroke-linecap="round"/>
<path d="M140.767 170.871L141.368 172.977" stroke="#42A0F0" stroke-linecap="round"/>
<path d="M140.767 170.871L142.916 170.295" stroke="#42A0F0" stroke-linecap="round"/>
<path d="M136.681 168.511L134.556 169.045" stroke="#42A0F0" stroke-linecap="round"/>
<path d="M136.681 168.511L136.105 166.363" stroke="#42A0F0" stroke-linecap="round"/>
</g>
<g filter="url(#filter1_f_1_1084)">
<path d="M260.935 184.885V200.053" stroke="#42A0F0" stroke-linecap="round"/>
<path d="M260.303 188.326L263.182 187.606" stroke="#42A0F0" stroke-linecap="round"/>
<path d="M260.303 188.326L256.704 187.606" stroke="#42A0F0" stroke-linecap="round"/>
<path d="M260.303 196.962L263.182 198.401" stroke="#42A0F0" stroke-linecap="round"/>
<path d="M260.303 196.962L256.704 198.401" stroke="#42A0F0" stroke-linecap="round"/>
<path d="M267.467 188.74L254.331 196.324" stroke="#42A0F0" stroke-linecap="round"/>
<path d="M264.241 190.566L267.882 191.48" stroke="#42A0F0" stroke-linecap="round"/>
<path d="M264.241 190.566L265.228 186.884" stroke="#42A0F0" stroke-linecap="round"/>
<path d="M257.235 194.611L256.206 198.222" stroke="#42A0F0" stroke-linecap="round"/>
<path d="M257.235 194.611L253.552 193.625" stroke="#42A0F0" stroke-linecap="round"/>
<path d="M267.394 196.324L254.258 188.74" stroke="#42A0F0" stroke-linecap="round"/>
<path d="M264.199 194.443L265.228 198.053" stroke="#42A0F0" stroke-linecap="round"/>
<path d="M264.199 194.443L267.882 193.457" stroke="#42A0F0" stroke-linecap="round"/>
<path d="M257.193 190.398L253.552 191.312" stroke="#42A0F0" stroke-linecap="round"/>
<path d="M257.193 190.398L256.206 186.715" stroke="#42A0F0" stroke-linecap="round"/>
</g>
<g filter="url(#filter2_f_1_1084)">
<path d="M349.591 208.439V220.892" stroke="#42A0F0" stroke-linecap="round"/>
<path d="M348.946 211.16L351.105 210.44" stroke="#42A0F0" stroke-linecap="round"/>
<path d="M348.946 211.16L346.067 210.44" stroke="#42A0F0" stroke-linecap="round"/>
<path d="M348.946 218.357L351.105 219.796" stroke="#42A0F0" stroke-linecap="round"/>
<path d="M348.946 218.357L346.067 219.796" stroke="#42A0F0" stroke-linecap="round"/>
<path d="M354.954 211.604L344.169 217.831" stroke="#42A0F0" stroke-linecap="round"/>
<path d="M352.305 213.104L355.295 213.855" stroke="#42A0F0" stroke-linecap="round"/>
<path d="M352.305 213.104L353.115 210.08" stroke="#42A0F0" stroke-linecap="round"/>
<path d="M346.554 216.425L345.709 219.39" stroke="#42A0F0" stroke-linecap="round"/>
<path d="M346.554 216.425L343.529 215.615" stroke="#42A0F0" stroke-linecap="round"/>
<path d="M354.894 217.83L344.109 211.604" stroke="#42A0F0" stroke-linecap="round"/>
<path d="M352.27 216.286L353.115 219.251" stroke="#42A0F0" stroke-linecap="round"/>
<path d="M352.27 216.286L355.294 215.476" stroke="#42A0F0" stroke-linecap="round"/>
<path d="M346.519 212.966L343.529 213.717" stroke="#42A0F0" stroke-linecap="round"/>
<path d="M346.519 212.966L345.708 209.942" stroke="#42A0F0" stroke-linecap="round"/>
</g>
<g filter="url(#filter3_f_1_1084)">
<path d="M43.3342 261.227V272.196" stroke="#42A0F0" stroke-linecap="round"/>
<path d="M42.7482 263.948L44.9072 263.228" stroke="#42A0F0" stroke-linecap="round"/>
<path d="M42.7482 263.948L40.5892 263.228" stroke="#42A0F0" stroke-linecap="round"/>
<path d="M42.7482 269.705L44.9072 271.144" stroke="#42A0F0" stroke-linecap="round"/>
<path d="M42.7482 269.705L40.5892 271.144" stroke="#42A0F0" stroke-linecap="round"/>
<path d="M48.0582 264.015L38.5587 269.499" stroke="#42A0F0" stroke-linecap="round"/>
<path d="M45.7253 265.336L48.3586 265.997" stroke="#42A0F0" stroke-linecap="round"/>
<path d="M45.7253 265.336L46.4391 262.672" stroke="#42A0F0" stroke-linecap="round"/>
<path d="M40.6582 268.262L39.914 270.873" stroke="#42A0F0" stroke-linecap="round"/>
<path d="M40.6582 268.262L37.9945 267.548" stroke="#42A0F0" stroke-linecap="round"/>
<path d="M48.0051 269.499L38.5057 264.014" stroke="#42A0F0" stroke-linecap="round"/>
<path d="M45.6944 268.139L46.4386 270.75" stroke="#42A0F0" stroke-linecap="round"/>
<path d="M45.6943 268.139L48.3581 267.426" stroke="#42A0F0" stroke-linecap="round"/>
<path d="M40.6273 265.214L37.994 265.875" stroke="#42A0F0" stroke-linecap="round"/>
<path d="M40.6272 265.214L39.9135 262.55" stroke="#42A0F0" stroke-linecap="round"/>
</g>
<g filter="url(#filter4_f_1_1084)">
<path d="M198.943 303.166V312.063" stroke="#42A0F0" stroke-linecap="round"/>
<path d="M198.726 305.167L200.165 304.447" stroke="#42A0F0" stroke-linecap="round"/>
<path d="M198.726 305.167L196.567 304.447" stroke="#42A0F0" stroke-linecap="round"/>
<path d="M198.726 310.205L200.165 310.925" stroke="#42A0F0" stroke-linecap="round"/>
<path d="M198.726 310.205L196.567 310.925" stroke="#42A0F0" stroke-linecap="round"/>
<path d="M202.774 305.427L195.069 309.875" stroke="#42A0F0" stroke-linecap="round"/>
<path d="M200.882 306.499L203.018 307.035" stroke="#42A0F0" stroke-linecap="round"/>
<path d="M200.882 306.5L201.461 304.339" stroke="#42A0F0" stroke-linecap="round"/>
<path d="M196.772 308.872L196.168 310.99" stroke="#42A0F0" stroke-linecap="round"/>
<path d="M196.772 308.872L194.611 308.293" stroke="#42A0F0" stroke-linecap="round"/>
<path d="M202.732 309.875L195.027 305.426" stroke="#42A0F0" stroke-linecap="round"/>
<path d="M200.857 308.772L201.461 310.89" stroke="#42A0F0" stroke-linecap="round"/>
<path d="M200.857 308.773L203.018 308.193" stroke="#42A0F0" stroke-linecap="round"/>
<path d="M196.747 306.4L194.611 306.936" stroke="#42A0F0" stroke-linecap="round"/>
<path d="M196.747 306.4L196.168 304.239" stroke="#42A0F0" stroke-linecap="round"/>
</g>
<g filter="url(#filter5_f_1_1084)">
<path d="M281.976 280.003V356.795" stroke="#42A0F0" stroke-width="6" stroke-linecap="round"/>
<path d="M281.822 298.774L295.047 285.122" stroke="#42A0F0" stroke-width="6" stroke-linecap="round"/>
<path d="M281.822 298.774L268.17 285.122" stroke="#42A0F0" stroke-width="6" stroke-linecap="round"/>
<path d="M281.822 339.73L295.047 353.382" stroke="#42A0F0" stroke-width="6" stroke-linecap="round"/>
<path d="M281.822 339.73L268.17 353.382" stroke="#42A0F0" stroke-width="6" stroke-linecap="round"/>
<path d="M315.044 299.519L248.54 337.915" stroke="#42A0F0" stroke-width="6" stroke-linecap="round"/>
<path d="M298.711 308.772L317.146 313.399" stroke="#42A0F0" stroke-width="6" stroke-linecap="round"/>
<path d="M298.711 308.772L303.708 290.123" stroke="#42A0F0" stroke-width="6" stroke-linecap="round"/>
<path d="M263.242 329.25L258.032 347.529" stroke="#42A0F0" stroke-width="6" stroke-linecap="round"/>
<path d="M263.242 329.25L244.593 324.253" stroke="#42A0F0" stroke-width="6" stroke-linecap="round"/>
<path d="M314.676 337.915L248.172 299.519" stroke="#42A0F0" stroke-width="6" stroke-linecap="round"/>
<path d="M298.497 328.397L303.708 346.676" stroke="#42A0F0" stroke-width="6" stroke-linecap="round"/>
<path d="M298.497 328.397L317.146 323.4" stroke="#42A0F0" stroke-width="6" stroke-linecap="round"/>
<path d="M263.028 307.919L244.593 312.546" stroke="#42A0F0" stroke-width="6" stroke-linecap="round"/>
<path d="M263.028 307.919L258.031 289.27" stroke="#42A0F0" stroke-width="6" stroke-linecap="round"/>
<path d="M194.976 192.003V268.795" stroke="#42A0F0" stroke-width="6" stroke-linecap="round"/>
<path d="M194.822 210.774L208.047 197.122" stroke="#42A0F0" stroke-width="6" stroke-linecap="round"/>
<path d="M194.822 210.774L181.17 197.122" stroke="#42A0F0" stroke-width="6" stroke-linecap="round"/>
<path d="M194.822 251.73L208.047 265.382" stroke="#42A0F0" stroke-width="6" stroke-linecap="round"/>
<path d="M194.822 251.73L181.17 265.382" stroke="#42A0F0" stroke-width="6" stroke-linecap="round"/>
<path d="M228.044 211.519L161.54 249.915" stroke="#42A0F0" stroke-width="6" stroke-linecap="round"/>
<path d="M211.711 220.772L230.146 225.399" stroke="#42A0F0" stroke-width="6" stroke-linecap="round"/>
<path d="M211.711 220.772L216.708 202.123" stroke="#42A0F0" stroke-width="6" stroke-linecap="round"/>
<path d="M176.242 241.25L171.032 259.529" stroke="#42A0F0" stroke-width="6" stroke-linecap="round"/>
<path d="M176.242 241.25L157.593 236.253" stroke="#42A0F0" stroke-width="6" stroke-linecap="round"/>
<path d="M227.676 249.915L161.172 211.519" stroke="#42A0F0" stroke-width="6" stroke-linecap="round"/>
<path d="M211.497 240.397L216.708 258.676" stroke="#42A0F0" stroke-width="6" stroke-linecap="round"/>
<path d="M211.497 240.397L230.146 235.4" stroke="#42A0F0" stroke-width="6" stroke-linecap="round"/>
<path d="M176.028 219.919L157.593 224.546" stroke="#42A0F0" stroke-width="6" stroke-linecap="round"/>
<path d="M176.028 219.919L171.031 201.27" stroke="#42A0F0" stroke-width="6" stroke-linecap="round"/>
<path d="M125.976 280.003V356.795" stroke="#42A0F0" stroke-width="6" stroke-linecap="round"/>
<path d="M125.822 298.774L139.047 285.122" stroke="#42A0F0" stroke-width="6" stroke-linecap="round"/>
<path d="M125.822 298.774L112.17 285.122" stroke="#42A0F0" stroke-width="6" stroke-linecap="round"/>
<path d="M125.822 339.73L139.047 353.382" stroke="#42A0F0" stroke-width="6" stroke-linecap="round"/>
<path d="M125.822 339.73L112.17 353.382" stroke="#42A0F0" stroke-width="6" stroke-linecap="round"/>
<path d="M159.044 299.519L92.5404 337.915" stroke="#42A0F0" stroke-width="6" stroke-linecap="round"/>
<path d="M142.711 308.772L161.146 313.399" stroke="#42A0F0" stroke-width="6" stroke-linecap="round"/>
<path d="M142.711 308.772L147.708 290.123" stroke="#42A0F0" stroke-width="6" stroke-linecap="round"/>
<path d="M107.242 329.25L102.032 347.529" stroke="#42A0F0" stroke-width="6" stroke-linecap="round"/>
<path d="M107.242 329.25L88.5931 324.253" stroke="#42A0F0" stroke-width="6" stroke-linecap="round"/>
<path d="M158.676 337.915L92.1723 299.519" stroke="#42A0F0" stroke-width="6" stroke-linecap="round"/>
<path d="M142.497 328.397L147.708 346.676" stroke="#42A0F0" stroke-width="6" stroke-linecap="round"/>
<path d="M142.497 328.397L161.146 323.4" stroke="#42A0F0" stroke-width="6" stroke-linecap="round"/>
<path d="M107.028 307.919L88.5926 312.546" stroke="#42A0F0" stroke-width="6" stroke-linecap="round"/>
<path d="M107.028 307.919L102.031 289.27" stroke="#42A0F0" stroke-width="6" stroke-linecap="round"/>
</g>
<g filter="url(#filter6_f_1_1084)">
<path d="M115.729 171C156.322 171 189.229 138.093 189.229 97.5C189.229 56.9071 156.322 24 115.729 24C75.1363 24 42.2292 56.9071 42.2292 97.5C42.2292 138.093 75.1363 171 115.729 171Z" fill="#FA9E42"/>
</g>
<g filter="url(#filter7_f_1_1084)">
<path d="M115.729 188C165.711 188 206.229 147.482 206.229 97.5C206.229 47.5182 165.711 7 115.729 7C65.7474 7 25.2292 47.5182 25.2292 97.5C25.2292 147.482 65.7474 188 115.729 188Z" stroke="#FA9E42" stroke-width="10" stroke-linecap="round" stroke-dasharray="1 66"/>
</g>
<g filter="url(#filter8_f_1_1084)">
<path d="M107.393 82.824C133.135 69.151 147.697 46.1934 139.918 31.5468C132.139 16.9002 104.964 16.1109 79.2211 29.7839C53.4786 43.4569 38.9167 66.4144 46.6961 81.061C54.4756 95.7076 81.6505 96.4969 107.393 82.824Z" fill="#F8E36F"/>
</g>
<g filter="url(#filter9_df_1_1084)">
<g filter="url(#filter10_d_1_1084)">
<path d="M235.562 250.765C233.629 250.92 231.676 250.999 229.705 251H92.1812C82.7149 251.035 73.3348 249.201 64.579 245.603C55.8232 242.005 47.8639 236.714 41.1577 230.032C34.4516 223.351 29.1305 215.412 25.4997 206.669C21.869 197.927 20 188.554 20 179.087C20 169.621 21.869 160.248 25.4997 151.506C29.1305 142.763 34.4516 134.824 41.1577 128.143C47.8639 121.461 55.8232 116.17 64.579 112.572C73.3348 108.974 82.7149 107.14 92.1812 107.175H143.457C160.081 70.6 198.368 45 242.941 45C302.768 45 351.268 91.115 351.268 148C351.268 204.885 302.768 251 242.941 251C240.461 251 238.001 250.922 235.562 250.765Z" fill="url(#paint0_linear_1_1084)"/>
<path d="M242.941 250C250.227 250 257.508 249.302 264.582 247.926C271.475 246.585 278.255 244.584 284.734 241.978C291.094 239.42 297.229 236.254 302.967 232.568C308.65 228.917 313.994 224.725 318.851 220.107C323.706 215.49 328.114 210.411 331.953 205.009C335.827 199.557 339.154 193.728 341.842 187.686C344.579 181.532 346.681 175.093 348.09 168.547C349.535 161.831 350.268 154.917 350.268 148C350.268 141.082 349.535 134.169 348.09 127.452C346.681 120.906 344.579 114.467 341.842 108.314C339.154 102.272 335.827 96.4433 331.953 90.991C328.114 85.5893 323.706 80.5095 318.851 75.8928C313.994 71.2752 308.65 67.0829 302.967 63.4323C297.229 59.7461 291.094 56.5801 284.734 54.0221C278.255 51.4165 271.475 49.4154 264.582 48.0742C257.508 46.6979 250.227 46 242.941 46C221.57 46 200.931 51.9523 183.255 63.2135C174.734 68.6418 167.078 75.1939 160.498 82.6878C153.876 90.2291 148.449 98.6069 144.367 107.588L144.1 108.175H143.457H92.1809C82.6073 108.175 73.3206 110.049 64.5788 113.747C60.3772 115.524 56.3246 117.724 52.5337 120.285C48.7785 122.822 45.2473 125.735 42.0381 128.945C38.8289 132.154 35.9154 135.685 33.3784 139.44C30.8173 143.231 28.6176 147.284 26.8405 151.485C23.143 160.227 21.2682 169.514 21.2682 179.087C21.2682 188.661 23.143 197.948 26.8405 206.689C28.6176 210.891 30.8173 214.944 33.3784 218.735C35.9154 222.49 38.8289 226.021 42.0381 229.23C45.2473 232.439 48.7785 235.353 52.5337 237.89C56.3246 240.451 60.3772 242.651 64.5788 244.428C73.3206 248.125 82.6073 250 92.1809 250H229.705C231.628 250 233.572 249.922 235.482 249.768L235.554 249.762L235.626 249.767C238.046 249.922 240.507 250 242.941 250ZM242.941 251C240.461 251 238 250.921 235.563 250.765C233.632 250.92 231.676 251 229.705 251H92.1809C52.4648 251 20.2682 218.803 20.2682 179.087C20.2682 139.371 52.4648 107.175 92.1809 107.175H143.457C160.081 70.5954 198.366 45 242.941 45C302.768 45 351.268 91.1151 351.268 148C351.268 204.885 302.768 251 242.941 251Z" fill="white" fill-opacity="0.5"/>
</g>
</g>
<defs>
<filter id="filter0_f_1_1084" x="132.056" y="162.795" width="13.3606" height="13.848" filterUnits="userSpaceOnUse" color-interpolation-filters="sRGB">
<feFlood flood-opacity="0" result="BackgroundImageFix"/>
<feBlend mode="normal" in="SourceGraphic" in2="BackgroundImageFix" result="shape"/>
<feGaussianBlur stdDeviation="1" result="effect1_foregroundBlur_1_1084"/>
</filter>
<filter id="filter1_f_1_1084" x="251.052" y="182.385" width="19.33" height="20.168" filterUnits="userSpaceOnUse" color-interpolation-filters="sRGB">
<feFlood flood-opacity="0" result="BackgroundImageFix"/>
<feBlend mode="normal" in="SourceGraphic" in2="BackgroundImageFix" result="shape"/>
<feGaussianBlur stdDeviation="1" result="effect1_foregroundBlur_1_1084"/>
</filter>
<filter id="filter2_f_1_1084" x="341.029" y="205.939" width="16.7662" height="17.453" filterUnits="userSpaceOnUse" color-interpolation-filters="sRGB">
<feFlood flood-opacity="0" result="BackgroundImageFix"/>
<feBlend mode="normal" in="SourceGraphic" in2="BackgroundImageFix" result="shape"/>
<feGaussianBlur stdDeviation="1" result="effect1_foregroundBlur_1_1084"/>
</filter>
<filter id="filter3_f_1_1084" x="35.4939" y="258.727" width="15.3648" height="15.969" filterUnits="userSpaceOnUse" color-interpolation-filters="sRGB">
<feFlood flood-opacity="0" result="BackgroundImageFix"/>
<feBlend mode="normal" in="SourceGraphic" in2="BackgroundImageFix" result="shape"/>
<feGaussianBlur stdDeviation="1" result="effect1_foregroundBlur_1_1084"/>
</filter>
<filter id="filter4_f_1_1084" x="192.111" y="300.666" width="13.4067" height="13.897" filterUnits="userSpaceOnUse" color-interpolation-filters="sRGB">
<feFlood flood-opacity="0" result="BackgroundImageFix"/>
<feBlend mode="normal" in="SourceGraphic" in2="BackgroundImageFix" result="shape"/>
<feGaussianBlur stdDeviation="1" result="effect1_foregroundBlur_1_1084"/>
</filter>
<filter id="filter5_f_1_1084" x="81.5919" y="185.003" width="242.555" height="178.792" filterUnits="userSpaceOnUse" color-interpolation-filters="sRGB">
<feFlood flood-opacity="0" result="BackgroundImageFix"/>
<feBlend mode="normal" in="SourceGraphic" in2="BackgroundImageFix" result="shape"/>
<feGaussianBlur stdDeviation="2" result="effect1_foregroundBlur_1_1084"/>
</filter>
<filter id="filter6_f_1_1084" x="38.2292" y="20" width="155" height="155" filterUnits="userSpaceOnUse" color-interpolation-filters="sRGB">
<feFlood flood-opacity="0" result="BackgroundImageFix"/>
<feBlend mode="normal" in="SourceGraphic" in2="BackgroundImageFix" result="shape"/>
<feGaussianBlur stdDeviation="2" result="effect1_foregroundBlur_1_1084"/>
</filter>
<filter id="filter7_f_1_1084" x="18.2292" y="0" width="195" height="195" filterUnits="userSpaceOnUse" color-interpolation-filters="sRGB">
<feFlood flood-opacity="0" result="BackgroundImageFix"/>
<feBlend mode="normal" in="SourceGraphic" in2="BackgroundImageFix" result="shape"/>
<feGaussianBlur stdDeviation="1" result="effect1_foregroundBlur_1_1084"/>
</filter>
<filter id="filter8_f_1_1084" x="24.6013" y="0.0239258" width="137.411" height="112.56" filterUnits="userSpaceOnUse" color-interpolation-filters="sRGB">
<feFlood flood-opacity="0" result="BackgroundImageFix"/>
<feBlend mode="normal" in="SourceGraphic" in2="BackgroundImageFix" result="shape"/>
<feGaussianBlur stdDeviation="10" result="effect1_foregroundBlur_1_1084"/>
</filter>
<filter id="filter9_df_1_1084" x="0" y="17" width="391.268" height="266" filterUnits="userSpaceOnUse" color-interpolation-filters="sRGB">
<feFlood flood-opacity="0" result="BackgroundImageFix"/>
<feColorMatrix in="SourceAlpha" type="matrix" values="0 0 0 0 0 0 0 0 0 0 0 0 0 0 0 0 0 0 127 0" result="hardAlpha"/>
<feOffset dx="10" dy="2"/>
<feGaussianBlur stdDeviation="15"/>
<feColorMatrix type="matrix" values="0 0 0 0 0.258824 0 0 0 0 0.627451 0 0 0 0 0.941176 0 0 0 0.596 0"/>
<feBlend mode="normal" in2="BackgroundImageFix" result="effect1_dropShadow_1_1084"/>
<feBlend mode="normal" in="SourceGraphic" in2="effect1_dropShadow_1_1084" result="shape"/>
<feGaussianBlur stdDeviation="2" result="effect2_foregroundBlur_1_1084"/>
</filter>
<filter id="filter10_d_1_1084" x="0" y="17" width="391.268" height="266" filterUnits="userSpaceOnUse" color-interpolation-filters="sRGB">
<feFlood flood-opacity="0" result="BackgroundImageFix"/>
<feColorMatrix in="SourceAlpha" type="matrix" values="0 0 0 0 0 0 0 0 0 0 0 0 0 0 0 0 0 0 127 0" result="hardAlpha"/>
<feOffset dx="10" dy="2"/>
<feGaussianBlur stdDeviation="15"/>
<feColorMatrix type="matrix" values="0 0 0 0 0.501961 0 0 0 0 0.501961 0 0 0 0 0.501961 0 0 0 0.302 0"/>
<feBlend mode="normal" in2="BackgroundImageFix" result="effect1_dropShadow_1_1084"/>
<feBlend mode="normal" in="SourceGraphic" in2="effect1_dropShadow_1_1084" result="shape"/>
</filter>
<linearGradient id="paint0_linear_1_1084" x1="154.164" y1="70.9561" x2="220.206" y2="262.168" gradientUnits="userSpaceOnUse">
<stop stop-color="white" stop-opacity="0.596"/>
<stop offset="1" stop-color="#F7F7F7" stop-opacity="0.204"/>
</linearGradient>
</defs>
</svg>
