<svg width="360" height="360" viewBox="0 0 360 360" fill="none" xmlns="http://www.w3.org/2000/svg">
<g filter="url(#filter0_d_1_2162)">
<g filter="url(#filter1_f_1_2162)">
<path d="M279.474 141.235C258.296 86.066 196.405 58.5101 141.235 79.6877C86.066 100.865 58.5101 162.757 79.6877 217.926C100.865 273.096 162.757 300.651 217.926 279.474C273.096 258.296 300.651 196.405 279.474 141.235Z" fill="#FA9E42"/>
</g>
<g filter="url(#filter2_f_1_2162)">
<path d="M304.681 131.56C278.159 62.4688 200.65 27.9596 131.56 54.4811C62.4688 81.0025 27.9596 158.511 54.481 227.602C81.0025 296.693 158.511 331.202 227.602 304.681C296.693 278.159 331.202 200.65 304.681 131.56Z" stroke="#FA9E42" stroke-width="10" stroke-linecap="round" stroke-dasharray="1 240"/>
</g>
<g filter="url(#filter3_f_1_2162)">
<path d="M196.73 175.357C221.684 141.002 226.067 101.641 206.52 87.4432C186.973 73.245 150.897 89.5854 125.943 123.941C100.989 158.296 96.6061 197.656 116.153 211.854C135.701 226.052 171.776 209.712 196.73 175.357Z" fill="#F8E36F"/>
</g>
</g>
<g filter="url(#filter4_f_1_2162)">
<path d="M140.856 286.353C133.732 284.177 126.848 281.283 120.31 277.716C107.689 270.813 96.5607 261.479 87.566 250.253C69.4614 227.689 60.8862 198.945 63.668 170.149C65.1311 155.17 69.5751 140.634 76.7385 127.397C90.5427 101.976 113.722 82.9438 141.345 74.3516C155.611 69.9373 170.629 68.486 185.477 70.0868C200.325 71.6876 214.689 76.3067 227.687 83.6604C216.802 82.7875 205.847 83.7806 195.297 86.5968C171.985 92.7953 151.834 107.485 138.799 127.782C125.765 148.078 120.79 172.515 124.851 196.292C128.912 220.069 141.716 241.469 160.749 256.288C179.781 271.108 203.666 278.276 227.714 276.385C221.34 280.062 214.616 283.096 207.642 285.443C186.023 292.733 162.661 293.052 140.851 286.355L140.856 286.353Z" fill="#713FFD"/>
</g>
<g filter="url(#filter5_f_1_2162)">
<path d="M59.3713 268.442L65.1758 273.853L73.9523 272.902L67.3736 278.788L67.5113 286.722L61.7068 281.312L52.9303 282.263L59.509 276.376L59.3713 268.442Z" fill="url(#paint0_linear_1_2162)"/>
</g>
<g filter="url(#filter6_f_1_2162)">
<path d="M57.5049 214.62L59.2697 224.841L69.3995 230.984L57.5714 231.652L51.2149 239.848L49.4501 229.628L39.3203 223.485L51.1484 222.816L57.5049 214.62Z" fill="url(#paint1_linear_1_2162)"/>
</g>
<g filter="url(#filter7_f_1_2162)">
<path d="M63.2353 59.8092L67.9566 64.103L75.1743 63.2547L69.7148 68.0514L69.7473 74.4332L65.026 70.1394L57.8083 70.9877L63.2678 66.1909L63.2353 59.8092Z" fill="url(#paint2_linear_1_2162)"/>
</g>
<g filter="url(#filter8_f_1_2162)">
<path d="M42.3672 153.219L43.9233 157.786L49.199 159.97L43.5846 161.009L41.1129 165.153L39.5568 160.585L34.2811 158.402L39.8955 157.363L42.3672 153.219Z" fill="url(#paint3_linear_1_2162)"/>
</g>
<defs>
<filter id="filter0_d_1_2162" x="29.323" y="21.323" width="320.516" height="320.516" filterUnits="userSpaceOnUse" color-interpolation-filters="sRGB">
<feFlood flood-opacity="0" result="BackgroundImageFix"/>
<feColorMatrix in="SourceAlpha" type="matrix" values="0 0 0 0 0 0 0 0 0 0 0 0 0 0 0 0 0 0 127 0" result="hardAlpha"/>
<feOffset dx="10" dy="2"/>
<feGaussianBlur stdDeviation="15"/>
<feColorMatrix type="matrix" values="0 0 0 0 0 0 0 0 0 0 0 0 0 0 0 0 0 0 0.25 0"/>
<feBlend mode="normal" in2="BackgroundImageFix" result="effect1_dropShadow_1_2162"/>
<feBlend mode="normal" in="SourceGraphic" in2="effect1_dropShadow_1_2162" result="shape"/>
</filter>
<filter id="filter1_f_1_2162" x="68.552" y="68.5519" width="222.058" height="222.058" filterUnits="userSpaceOnUse" color-interpolation-filters="sRGB">
<feFlood flood-opacity="0" result="BackgroundImageFix"/>
<feBlend mode="normal" in="SourceGraphic" in2="BackgroundImageFix" result="shape"/>
<feGaussianBlur stdDeviation="2" result="effect1_foregroundBlur_1_2162"/>
</filter>
<filter id="filter2_f_1_2162" x="47.323" y="47.323" width="264.516" height="264.516" filterUnits="userSpaceOnUse" color-interpolation-filters="sRGB">
<feFlood flood-opacity="0" result="BackgroundImageFix"/>
<feBlend mode="normal" in="SourceGraphic" in2="BackgroundImageFix" result="shape"/>
<feGaussianBlur stdDeviation="1" result="effect1_foregroundBlur_1_2162"/>
</filter>
<filter id="filter3_f_1_2162" x="83.9388" y="62.3226" width="154.796" height="174.652" filterUnits="userSpaceOnUse" color-interpolation-filters="sRGB">
<feFlood flood-opacity="0" result="BackgroundImageFix"/>
<feBlend mode="normal" in="SourceGraphic" in2="BackgroundImageFix" result="shape"/>
<feGaussianBlur stdDeviation="10" result="effect1_foregroundBlur_1_2162"/>
</filter>
<filter id="filter4_f_1_2162" x="59.1536" y="65.4555" width="172.56" height="229.699" filterUnits="userSpaceOnUse" color-interpolation-filters="sRGB">
<feFlood flood-opacity="0" result="BackgroundImageFix"/>
<feBlend mode="normal" in="SourceGraphic" in2="BackgroundImageFix" result="shape"/>
<feGaussianBlur stdDeviation="2" result="effect1_foregroundBlur_1_2162"/>
</filter>
<filter id="filter5_f_1_2162" x="50.9303" y="266.442" width="25.022" height="22.28" filterUnits="userSpaceOnUse" color-interpolation-filters="sRGB">
<feFlood flood-opacity="0" result="BackgroundImageFix"/>
<feBlend mode="normal" in="SourceGraphic" in2="BackgroundImageFix" result="shape"/>
<feGaussianBlur stdDeviation="1" result="effect1_foregroundBlur_1_2162"/>
</filter>
<filter id="filter6_f_1_2162" x="37.3203" y="212.62" width="34.0792" height="29.2277" filterUnits="userSpaceOnUse" color-interpolation-filters="sRGB">
<feFlood flood-opacity="0" result="BackgroundImageFix"/>
<feBlend mode="normal" in="SourceGraphic" in2="BackgroundImageFix" result="shape"/>
<feGaussianBlur stdDeviation="1" result="effect1_foregroundBlur_1_2162"/>
</filter>
<filter id="filter7_f_1_2162" x="55.8083" y="57.8091" width="21.366" height="18.624" filterUnits="userSpaceOnUse" color-interpolation-filters="sRGB">
<feFlood flood-opacity="0" result="BackgroundImageFix"/>
<feBlend mode="normal" in="SourceGraphic" in2="BackgroundImageFix" result="shape"/>
<feGaussianBlur stdDeviation="1" result="effect1_foregroundBlur_1_2162"/>
</filter>
<filter id="filter8_f_1_2162" x="32.2811" y="151.219" width="18.9178" height="15.9343" filterUnits="userSpaceOnUse" color-interpolation-filters="sRGB">
<feFlood flood-opacity="0" result="BackgroundImageFix"/>
<feBlend mode="normal" in="SourceGraphic" in2="BackgroundImageFix" result="shape"/>
<feGaussianBlur stdDeviation="1" result="effect1_foregroundBlur_1_2162"/>
</filter>
<linearGradient id="paint0_linear_1_2162" x1="59.3713" y1="268.442" x2="67.5113" y2="286.722" gradientUnits="userSpaceOnUse">
<stop stop-color="#6B38FC"/>
<stop offset="1" stop-color="#9F7EFD"/>
</linearGradient>
<linearGradient id="paint1_linear_1_2162" x1="57.5049" y1="214.62" x2="51.2149" y2="239.848" gradientUnits="userSpaceOnUse">
<stop stop-color="#6B38FC"/>
<stop offset="1" stop-color="#9F7EFD"/>
</linearGradient>
<linearGradient id="paint2_linear_1_2162" x1="63.2353" y1="59.8092" x2="69.7473" y2="74.4332" gradientUnits="userSpaceOnUse">
<stop stop-color="#6B38FC"/>
<stop offset="1" stop-color="#9F7EFD"/>
</linearGradient>
<linearGradient id="paint3_linear_1_2162" x1="42.3672" y1="153.219" x2="41.1129" y2="165.153" gradientUnits="userSpaceOnUse">
<stop stop-color="#6B38FC"/>
<stop offset="1" stop-color="#9F7EFD"/>
</linearGradient>
</defs>
</svg>
