<svg width="407" height="304" viewBox="0 0 407 304" fill="none" xmlns="http://www.w3.org/2000/svg">
<g filter="url(#filter0_f_1_526)">
<path d="M201.93 169C205.872 169.044 245.86 231.479 245.86 255.741C245.86 267.392 241.232 278.566 232.993 286.804C224.755 295.043 213.581 299.671 201.93 299.671C190.279 299.671 179.105 295.043 170.867 286.804C162.628 278.566 158 267.392 158 255.741C158 231.48 197.989 168.956 201.93 169Z" fill="#42A0F0"/>
<g filter="url(#filter1_f_1_526)">
<path d="M168.435 272.163C172.825 273.505 178.404 267.984 180.896 259.832C183.388 251.68 181.85 243.984 177.461 242.642C173.071 241.3 167.493 246.821 165 254.973C162.508 263.125 164.046 270.821 168.435 272.163Z" fill="white"/>
</g>
</g>
<g filter="url(#filter2_f_1_526)">
<path d="M90.487 182.295C75.2647 182.316 60.3894 177.749 47.801 169.19C36.3707 161.443 27.2384 150.76 21.3638 138.263C15.4892 125.767 13.0893 111.919 14.4162 98.1744C15.7431 84.43 20.748 71.2968 28.9047 60.155C37.0614 49.0133 48.0688 40.2745 60.77 34.857C70.1662 30.8591 80.2756 28.8077 90.487 28.827C93.4678 28.8271 96.4462 29.0001 99.407 29.345C97.6808 33.1196 96.36 37.0667 95.467 41.12C94.5491 45.3035 94.0867 49.5741 94.088 53.857C94.0688 65.6102 97.5779 77.0985 104.161 86.835C108.405 93.1149 113.813 98.5232 120.093 102.767C123.249 104.899 126.605 106.72 130.112 108.205C137.375 111.279 145.184 112.855 153.071 112.84C157.634 112.842 162.182 112.317 166.624 111.275C165.576 125.709 160.46 139.551 151.869 151.197C149.09 154.965 145.974 158.472 142.559 161.676C128.466 174.938 109.839 182.315 90.487 182.295Z" fill="#713FFD"/>
</g>
<g filter="url(#filter3_f_1_526)">
<path d="M77.0539 95.0076C94.1917 79.5767 99.5265 57.5627 88.9696 45.838C78.4126 34.1133 55.9616 37.1178 38.8238 52.5488C21.6859 67.9798 16.3511 89.9937 26.9081 101.718C37.465 113.443 59.9161 110.439 77.0539 95.0076Z" fill="#A586FC"/>
</g>
<g filter="url(#filter4_f_1_526)">
<path d="M52.986 9L55.551 15.2L62.486 17.5L55.551 19.8L52.986 26L50.421 19.8L43.486 17.5L50.421 15.2L52.986 9Z" fill="url(#paint0_linear_1_526)"/>
<path d="M167.486 156L169.646 161.11L175.486 163L169.646 164.89L167.486 170L165.326 164.89L159.486 163L165.326 161.11L167.486 156Z" fill="url(#paint1_linear_1_526)"/>
<path d="M133.489 28.6053L137.03 33.2473L143.344 33.6253L138.066 37.1113L137.322 42.9021L133.781 38.2498L127.467 37.8718L132.745 34.3858L133.489 28.6053Z" fill="url(#paint2_linear_1_526)"/>
<path d="M7.1838 144.601L11.0048 148.197L16.9482 147.602L12.3921 151.464L12.3231 156.707L8.51299 153.109L2.56965 153.704L7.1265 149.843L7.1838 144.601Z" fill="url(#paint3_linear_1_526)"/>
<path d="M130.152 80.0386L125.953 80.8898L123.468 85.2424L123.142 80.241L119.741 77.6352L123.943 76.7866L126.427 72.4338L126.75 77.4347L130.152 80.0386Z" fill="url(#paint4_linear_1_526)"/>
</g>
<g filter="url(#filter5_df_1_526)">
<g filter="url(#filter6_d_1_526)">
<path d="M251.254 233.765C249.321 233.92 247.368 233.999 245.397 234H107.873C98.4068 234.035 89.0267 232.201 80.2708 228.603C71.515 225.005 63.5557 219.714 56.8496 213.032C50.1434 206.351 44.8223 198.412 41.1916 189.669C37.5608 180.927 35.6918 171.554 35.6918 162.087C35.6918 152.621 37.5608 143.248 41.1916 134.506C44.8223 125.763 50.1434 117.824 56.8496 111.143C63.5557 104.461 71.515 99.17 80.2708 95.5718C89.0267 91.9737 98.4068 90.1397 107.873 90.175H159.148C175.772 53.6 214.06 28 258.633 28C318.46 28 366.96 74.115 366.96 131C366.96 187.885 318.46 234 258.633 234C256.153 234 253.693 233.922 251.254 233.765Z" fill="url(#paint5_linear_1_526)"/>
<path d="M258.633 233C265.919 233 273.2 232.302 280.273 230.926C287.166 229.585 293.947 227.584 300.425 224.978C306.786 222.42 312.921 219.254 318.659 215.568C324.342 211.917 329.686 207.725 334.543 203.107C339.398 198.49 343.806 193.411 347.644 188.009C351.518 182.557 354.846 176.728 357.534 170.686C360.271 164.532 362.373 158.093 363.782 151.547C365.227 144.831 365.96 137.917 365.96 131C365.96 124.082 365.227 117.169 363.782 110.452C362.373 103.906 360.271 97.4673 357.534 91.3142C354.846 85.2716 351.518 79.4433 347.644 73.991C343.806 68.5893 339.398 63.5095 334.543 58.8928C329.686 54.2752 324.342 50.0829 318.659 46.4323C312.921 42.7461 306.786 39.5801 300.425 37.0221C293.947 34.4165 287.166 32.4154 280.273 31.0742C273.2 29.6979 265.919 29 258.633 29C237.262 29 216.622 34.9523 198.946 46.2135C190.426 51.6418 182.769 58.1939 176.189 65.6878C169.567 73.2291 164.14 81.6069 160.058 90.5885L159.792 91.1747H159.148H107.873C98.2991 91.1747 89.0125 93.0495 80.2706 96.747C76.069 98.5242 72.0164 100.724 68.2255 103.285C64.4704 105.822 60.9391 108.735 57.7299 111.945C54.5207 115.154 51.6072 118.685 49.0702 122.44C46.5091 126.231 44.3095 130.284 42.5323 134.485C38.8348 143.227 36.96 152.514 36.96 162.087C36.96 171.661 38.8348 180.948 42.5323 189.689C44.3095 193.891 46.5091 197.944 49.0702 201.735C51.6072 205.49 54.5207 209.021 57.7299 212.23C60.9391 215.439 64.4704 218.353 68.2255 220.89C72.0164 223.451 76.069 225.651 80.2706 227.428C89.0125 231.125 98.2991 233 107.873 233H245.397C247.32 233 249.264 232.922 251.174 232.768L251.246 232.762L251.318 232.767C253.738 232.922 256.199 233 258.633 233ZM258.633 234C256.153 234 253.692 233.921 251.254 233.765C249.324 233.92 247.368 234 245.397 234H107.873C68.1566 234 35.96 201.803 35.96 162.087C35.96 122.371 68.1566 90.1747 107.873 90.1747H159.148C175.772 53.5954 214.058 28 258.633 28C318.46 28 366.96 74.1151 366.96 131C366.96 187.885 318.46 234 258.633 234Z" fill="white" fill-opacity="0.5"/>
</g>
</g>
<defs>
<filter id="filter0_f_1_526" x="154" y="165" width="95.86" height="138.671" filterUnits="userSpaceOnUse" color-interpolation-filters="sRGB">
<feFlood flood-opacity="0" result="BackgroundImageFix"/>
<feBlend mode="normal" in="SourceGraphic" in2="BackgroundImageFix" result="shape"/>
<feGaussianBlur stdDeviation="2" result="effect1_foregroundBlur_1_526"/>
</filter>
<filter id="filter1_f_1_526" x="159.807" y="238.441" width="26.2825" height="37.9231" filterUnits="userSpaceOnUse" color-interpolation-filters="sRGB">
<feFlood flood-opacity="0" result="BackgroundImageFix"/>
<feBlend mode="normal" in="SourceGraphic" in2="BackgroundImageFix" result="shape"/>
<feGaussianBlur stdDeviation="2" result="effect1_foregroundBlur_1_526"/>
</filter>
<filter id="filter2_f_1_526" x="10.0604" y="24.8269" width="160.564" height="161.468" filterUnits="userSpaceOnUse" color-interpolation-filters="sRGB">
<feFlood flood-opacity="0" result="BackgroundImageFix"/>
<feBlend mode="normal" in="SourceGraphic" in2="BackgroundImageFix" result="shape"/>
<feGaussianBlur stdDeviation="2" result="effect1_foregroundBlur_1_526"/>
</filter>
<filter id="filter3_f_1_526" x="1.48795" y="18.6858" width="112.902" height="110.185" filterUnits="userSpaceOnUse" color-interpolation-filters="sRGB">
<feFlood flood-opacity="0" result="BackgroundImageFix"/>
<feBlend mode="normal" in="SourceGraphic" in2="BackgroundImageFix" result="shape"/>
<feGaussianBlur stdDeviation="10" result="effect1_foregroundBlur_1_526"/>
</filter>
<filter id="filter4_f_1_526" x="0.569641" y="7" width="176.916" height="165" filterUnits="userSpaceOnUse" color-interpolation-filters="sRGB">
<feFlood flood-opacity="0" result="BackgroundImageFix"/>
<feBlend mode="normal" in="SourceGraphic" in2="BackgroundImageFix" result="shape"/>
<feGaussianBlur stdDeviation="1" result="effect1_foregroundBlur_1_526"/>
</filter>
<filter id="filter5_df_1_526" x="31.6918" y="24" width="339.268" height="218" filterUnits="userSpaceOnUse" color-interpolation-filters="sRGB">
<feFlood flood-opacity="0" result="BackgroundImageFix"/>
<feColorMatrix in="SourceAlpha" type="matrix" values="0 0 0 0 0 0 0 0 0 0 0 0 0 0 0 0 0 0 127 0" result="hardAlpha"/>
<feOffset dy="4"/>
<feGaussianBlur stdDeviation="2"/>
<feColorMatrix type="matrix" values="0 0 0 0 0.258824 0 0 0 0 0.627451 0 0 0 0 0.941176 0 0 0 0.596 0"/>
<feBlend mode="normal" in2="BackgroundImageFix" result="effect1_dropShadow_1_526"/>
<feBlend mode="normal" in="SourceGraphic" in2="effect1_dropShadow_1_526" result="shape"/>
<feGaussianBlur stdDeviation="2" result="effect2_foregroundBlur_1_526"/>
</filter>
<filter id="filter6_d_1_526" x="15.6918" y="0" width="391.268" height="266" filterUnits="userSpaceOnUse" color-interpolation-filters="sRGB">
<feFlood flood-opacity="0" result="BackgroundImageFix"/>
<feColorMatrix in="SourceAlpha" type="matrix" values="0 0 0 0 0 0 0 0 0 0 0 0 0 0 0 0 0 0 127 0" result="hardAlpha"/>
<feOffset dx="10" dy="2"/>
<feGaussianBlur stdDeviation="15"/>
<feColorMatrix type="matrix" values="0 0 0 0 0.501961 0 0 0 0 0.501961 0 0 0 0 0.501961 0 0 0 0.302 0"/>
<feBlend mode="normal" in2="BackgroundImageFix" result="effect1_dropShadow_1_526"/>
<feBlend mode="normal" in="SourceGraphic" in2="effect1_dropShadow_1_526" result="shape"/>
</filter>
<linearGradient id="paint0_linear_1_526" x1="52.986" y1="9" x2="52.986" y2="26" gradientUnits="userSpaceOnUse">
<stop stop-color="#6B38FC"/>
<stop offset="1" stop-color="#9F7EFD"/>
</linearGradient>
<linearGradient id="paint1_linear_1_526" x1="167.486" y1="156" x2="167.486" y2="170" gradientUnits="userSpaceOnUse">
<stop stop-color="#6B38FC"/>
<stop offset="1" stop-color="#9F7EFD"/>
</linearGradient>
<linearGradient id="paint2_linear_1_526" x1="133.49" y1="28.605" x2="137.323" y2="42.9018" gradientUnits="userSpaceOnUse">
<stop stop-color="#6B38FC"/>
<stop offset="1" stop-color="#9F7EFD"/>
</linearGradient>
<linearGradient id="paint3_linear_1_526" x1="7.18887" y1="144.599" x2="12.3282" y2="156.705" gradientUnits="userSpaceOnUse">
<stop stop-color="#6B38FC"/>
<stop offset="1" stop-color="#9F7EFD"/>
</linearGradient>
<linearGradient id="paint4_linear_1_526" x1="130.151" y1="80.0395" x2="119.741" y2="77.6362" gradientUnits="userSpaceOnUse">
<stop stop-color="#6B38FC"/>
<stop offset="1" stop-color="#9F7EFD"/>
</linearGradient>
<linearGradient id="paint5_linear_1_526" x1="169.855" y1="53.9561" x2="235.898" y2="245.168" gradientUnits="userSpaceOnUse">
<stop stop-color="white" stop-opacity="0.596"/>
<stop offset="1" stop-color="#F7F7F7" stop-opacity="0.204"/>
</linearGradient>
</defs>
</svg>
