<svg width="293" height="206" viewBox="0 0 293 206" fill="none" xmlns="http://www.w3.org/2000/svg">
<g filter="url(#filter0_f_1_2026)">
<path d="M140.376 56.145C140.376 56.145 150.14 69.381 157.771 68.945C167.337 68.383 168.971 56.845 177.839 56.145C187.117 56.284 188.064 68.245 198.12 68.945C207.13 68.784 210.947 56.363 219.536 56.145C228.125 55.927 237.28 68.945 237.28 68.945" stroke="white" stroke-width="16" stroke-linecap="round"/>
</g>
<g filter="url(#filter1_f_1_2026)">
<path d="M134.363 136.145C134.363 136.145 149.063 149.381 160.556 148.945C174.956 148.383 177.427 136.845 190.774 136.145C204.744 136.284 206.174 148.245 221.313 148.945C234.88 148.784 240.628 136.363 253.56 136.145C266.492 135.927 280.279 148.944 280.279 148.944" stroke="white" stroke-width="16" stroke-linecap="round"/>
</g>
<g filter="url(#filter2_f_1_2026)">
<path d="M50.363 181.145C50.363 181.145 65.063 194.381 76.556 193.945C90.956 193.383 93.427 181.845 106.774 181.145C120.744 181.284 122.174 193.245 137.313 193.945C150.88 193.784 156.628 181.363 169.56 181.145C182.492 180.927 196.279 193.944 196.279 193.944" stroke="white" stroke-width="16" stroke-linecap="round"/>
</g>
<g filter="url(#filter3_f_1_2026)">
<path d="M201.052 96.5L194.052 103.5" stroke="#CAD1D2" stroke-width="4" stroke-linecap="round"/>
<path d="M194.052 96.5L201.052 103.5" stroke="#CAD1D2" stroke-width="4" stroke-linecap="round"/>
<path d="M258.072 177.5L253.052 182.52" stroke="#42A0F0" stroke-width="4" stroke-linecap="round"/>
<path d="M253.052 177.5L258.072 182.52" stroke="#42A0F0" stroke-width="4" stroke-linecap="round"/>
<path d="M43.072 152.5L38.052 157.52" stroke="#D0D0D0" stroke-width="4" stroke-linecap="round"/>
<path d="M38.052 152.5L43.072 157.52" stroke="#D0D0D0" stroke-width="4" stroke-linecap="round"/>
<path d="M249.072 34.5L244.052 39.52" stroke="#42A0F0" stroke-width="4" stroke-linecap="round"/>
<path d="M244.052 34.5L249.072 39.52" stroke="#42A0F0" stroke-width="4" stroke-linecap="round"/>
</g>
<g filter="url(#filter4_f_1_2026)">
<path d="M72.159 128.385C60.8612 128.4 49.821 125.01 40.478 118.658C31.9947 112.908 25.217 104.979 20.857 95.7046C16.497 86.4301 14.7158 76.1523 15.7006 65.9514C16.6854 55.7505 20.3998 46.0033 26.4534 37.7341C32.5071 29.4648 40.6765 22.9789 50.103 18.958C57.0771 15.9916 64.5802 14.4699 72.159 14.485C74.3716 14.4852 76.5823 14.6137 78.78 14.87C76.1642 20.5776 74.8172 26.7846 74.832 33.063C74.8363 41.6689 77.3742 50.083 82.129 57.256C86.8839 64.429 93.6453 70.0434 101.57 73.399C106.961 75.6805 112.756 76.8505 118.61 76.839C121.997 76.8404 125.372 76.4508 128.669 75.678C127.639 89.9731 121.242 103.35 110.762 113.126C100.281 122.901 86.4911 128.352 72.159 128.385Z" fill="#713FFD"/>
</g>
<g filter="url(#filter5_f_1_2026)">
<path d="M62.1886 63.6033C74.9082 52.1505 78.8677 35.812 71.0325 27.1101C63.1973 18.4082 46.5344 20.6382 33.8148 32.091C21.0952 43.5437 17.1357 59.8823 24.9709 68.5842C32.8061 77.286 49.4691 75.056 62.1886 63.6033Z" fill="#A586FC"/>
</g>
<path d="M45.18 0L46.935 4.38L51.68 6L46.935 7.62L45.18 12L43.425 7.62L38.68 6L43.425 4.38L45.18 0Z" fill="url(#paint0_linear_1_2026)"/>
<path d="M129.18 109L130.665 112.65L134.68 114L130.665 115.35L129.18 119L127.695 115.35L123.68 114L127.695 112.65L129.18 109Z" fill="url(#paint1_linear_1_2026)"/>
<path d="M104.079 14.3201L106.703 17.7644L111.387 18.0432L107.471 20.6266L106.921 24.9219L104.291 21.4792L99.6071 21.2004L103.523 18.617L104.079 14.3201Z" fill="url(#paint2_linear_1_2026)"/>
<path d="M10.3344 100.411L13.1672 103.079L17.5762 102.639L14.1971 105.505L14.1486 109.396L11.3162 106.728L6.9073 107.169L10.2863 104.303L10.3344 100.411Z" fill="url(#paint3_linear_1_2026)"/>
<path d="M101.599 52.495L98.4836 53.1274L96.6399 56.3565L96.3984 52.646L93.8758 50.712L96.9909 50.0796L98.8346 46.8505L99.0761 50.561L101.599 52.495Z" fill="url(#paint4_linear_1_2026)"/>
<defs>
<filter id="filter0_f_1_2026" x="128.375" y="44.1403" width="120.905" height="36.8154" filterUnits="userSpaceOnUse" color-interpolation-filters="sRGB">
<feFlood flood-opacity="0" result="BackgroundImageFix"/>
<feBlend mode="normal" in="SourceGraphic" in2="BackgroundImageFix" result="shape"/>
<feGaussianBlur stdDeviation="2" result="effect1_foregroundBlur_1_2026"/>
</filter>
<filter id="filter1_f_1_2026" x="122.363" y="124.142" width="169.916" height="36.8131" filterUnits="userSpaceOnUse" color-interpolation-filters="sRGB">
<feFlood flood-opacity="0" result="BackgroundImageFix"/>
<feBlend mode="normal" in="SourceGraphic" in2="BackgroundImageFix" result="shape"/>
<feGaussianBlur stdDeviation="2" result="effect1_foregroundBlur_1_2026"/>
</filter>
<filter id="filter2_f_1_2026" x="38.3629" y="169.142" width="169.916" height="36.8131" filterUnits="userSpaceOnUse" color-interpolation-filters="sRGB">
<feFlood flood-opacity="0" result="BackgroundImageFix"/>
<feBlend mode="normal" in="SourceGraphic" in2="BackgroundImageFix" result="shape"/>
<feGaussianBlur stdDeviation="2" result="effect1_foregroundBlur_1_2026"/>
</filter>
<filter id="filter3_f_1_2026" x="34.052" y="30.5" width="228.02" height="156.02" filterUnits="userSpaceOnUse" color-interpolation-filters="sRGB">
<feFlood flood-opacity="0" result="BackgroundImageFix"/>
<feBlend mode="normal" in="SourceGraphic" in2="BackgroundImageFix" result="shape"/>
<feGaussianBlur stdDeviation="1" result="effect1_foregroundBlur_1_2026"/>
</filter>
<filter id="filter4_f_1_2026" x="11.4366" y="10.4849" width="121.232" height="121.9" filterUnits="userSpaceOnUse" color-interpolation-filters="sRGB">
<feFlood flood-opacity="0" result="BackgroundImageFix"/>
<feBlend mode="normal" in="SourceGraphic" in2="BackgroundImageFix" result="shape"/>
<feGaussianBlur stdDeviation="2" result="effect1_foregroundBlur_1_2026"/>
</filter>
<filter id="filter5_f_1_2026" x="0.948212" y="1.80191" width="94.107" height="92.0905" filterUnits="userSpaceOnUse" color-interpolation-filters="sRGB">
<feFlood flood-opacity="0" result="BackgroundImageFix"/>
<feBlend mode="normal" in="SourceGraphic" in2="BackgroundImageFix" result="shape"/>
<feGaussianBlur stdDeviation="10" result="effect1_foregroundBlur_1_2026"/>
</filter>
<linearGradient id="paint0_linear_1_2026" x1="45.18" y1="0" x2="45.18" y2="12" gradientUnits="userSpaceOnUse">
<stop stop-color="#6B38FC"/>
<stop offset="1" stop-color="#9F7EFD"/>
</linearGradient>
<linearGradient id="paint1_linear_1_2026" x1="129.18" y1="109" x2="129.18" y2="119" gradientUnits="userSpaceOnUse">
<stop stop-color="#6B38FC"/>
<stop offset="1" stop-color="#9F7EFD"/>
</linearGradient>
<linearGradient id="paint2_linear_1_2026" x1="104.076" y1="14.3209" x2="106.918" y2="24.9227" gradientUnits="userSpaceOnUse">
<stop stop-color="#6B38FC"/>
<stop offset="1" stop-color="#9F7EFD"/>
</linearGradient>
<linearGradient id="paint3_linear_1_2026" x1="10.3344" y1="100.411" x2="14.1486" y2="109.396" gradientUnits="userSpaceOnUse">
<stop stop-color="#6B38FC"/>
<stop offset="1" stop-color="#9F7EFD"/>
</linearGradient>
<linearGradient id="paint4_linear_1_2026" x1="101.599" y1="52.495" x2="93.8758" y2="50.712" gradientUnits="userSpaceOnUse">
<stop stop-color="#6B38FC"/>
<stop offset="1" stop-color="#9F7EFD"/>
</linearGradient>
</defs>
</svg>
