<svg width="293" height="194" viewBox="0 0 293 194" fill="none" xmlns="http://www.w3.org/2000/svg">
<g filter="url(#filter0_f_1_2075)">
<path d="M140.663 43.6721C140.663 43.6721 150.427 56.9081 158.058 56.4721C167.624 55.9101 169.258 44.3721 178.126 43.6721C187.404 43.8111 188.351 55.7721 198.407 56.4721C207.417 56.3111 211.234 43.8901 219.823 43.6721C228.412 43.4541 237.567 56.4721 237.567 56.4721" stroke="white" stroke-width="16" stroke-linecap="round"/>
</g>
<g filter="url(#filter1_f_1_2075)">
<path d="M134.65 123.672C134.65 123.672 149.35 136.908 160.843 136.472C175.243 135.91 177.714 124.372 191.061 123.672C205.031 123.811 206.461 135.772 221.6 136.472C235.167 136.311 240.915 123.89 253.847 123.672C266.779 123.454 280.566 136.471 280.566 136.471" stroke="white" stroke-width="16" stroke-linecap="round"/>
</g>
<g filter="url(#filter2_f_1_2075)">
<path d="M50.6498 168.672C50.6498 168.672 65.3498 181.908 76.8428 181.472C91.2428 180.91 93.7138 169.372 107.061 168.672C121.031 168.811 122.461 180.772 137.6 181.472C151.167 181.311 156.915 168.89 169.847 168.672C182.779 168.454 196.566 181.471 196.566 181.471" stroke="white" stroke-width="16" stroke-linecap="round"/>
</g>
<g filter="url(#filter3_f_1_2075)">
<path d="M201.339 84.0271L194.339 91.0271" stroke="#CAD1D2" stroke-width="4" stroke-linecap="round"/>
<path d="M194.339 84.0271L201.339 91.0271" stroke="#CAD1D2" stroke-width="4" stroke-linecap="round"/>
<path d="M258.359 165.027L253.339 170.047" stroke="#42A0F0" stroke-width="4" stroke-linecap="round"/>
<path d="M253.339 165.027L258.359 170.047" stroke="#42A0F0" stroke-width="4" stroke-linecap="round"/>
<path d="M43.3589 140.027L38.3389 145.047" stroke="#D0D0D0" stroke-width="4" stroke-linecap="round"/>
<path d="M38.3389 140.027L43.3589 145.047" stroke="#D0D0D0" stroke-width="4" stroke-linecap="round"/>
<path d="M249.359 22.0271L244.339 27.0471" stroke="#42A0F0" stroke-width="4" stroke-linecap="round"/>
<path d="M244.339 22.0271L249.359 27.0471" stroke="#42A0F0" stroke-width="4" stroke-linecap="round"/>
</g>
<g filter="url(#filter4_f_1_2075)">
<path d="M85.1412 19.444L48.1256 111.061" stroke="#42A0F0" stroke-width="10" stroke-linecap="round"/>
<path d="M75.9104 41.7654L98.2699 31.8527" stroke="#42A0F0" stroke-width="10" stroke-linecap="round"/>
<path d="M75.9104 41.7654L66.2032 18.8969" stroke="#42A0F0" stroke-width="10" stroke-linecap="round"/>
<path d="M56.1686 90.628L65.3667 113.291" stroke="#42A0F0" stroke-width="10" stroke-linecap="round"/>
<path d="M56.1686 90.628L33.3 100.335" stroke="#42A0F0" stroke-width="10" stroke-linecap="round"/>
<path d="M115.187 58.6674L17.3364 72.4194" stroke="#42A0F0" stroke-width="10" stroke-linecap="round"/>
<path d="M91.2403 61.8339L111.005 76.2414" stroke="#42A0F0" stroke-width="10" stroke-linecap="round"/>
<path d="M91.2403 61.8339L106.192 41.993" stroke="#42A0F0" stroke-width="10" stroke-linecap="round"/>
<path d="M39.0532 69.1683L24.0256 88.4656" stroke="#42A0F0" stroke-width="10" stroke-linecap="round"/>
<path d="M39.0533 69.1683L19.2124 54.2172" stroke="#42A0F0" stroke-width="10" stroke-linecap="round"/>
<path d="M96.2413 104.299L35.4066 26.4342" stroke="#42A0F0" stroke-width="10" stroke-linecap="round"/>
<path d="M81.5257 85.1442L78.9307 109.464" stroke="#42A0F0" stroke-width="10" stroke-linecap="round"/>
<path d="M81.5258 85.1442L106.184 88.1718" stroke="#42A0F0" stroke-width="10" stroke-linecap="round"/>
<path d="M49.0804 43.616L24.8548 40.2504" stroke="#42A0F0" stroke-width="10" stroke-linecap="round"/>
<path d="M49.0805 43.616L52.1081 18.9577" stroke="#42A0F0" stroke-width="10" stroke-linecap="round"/>
</g>
<defs>
<filter id="filter0_f_1_2075" x="128.662" y="31.6674" width="120.905" height="36.8154" filterUnits="userSpaceOnUse" color-interpolation-filters="sRGB">
<feFlood flood-opacity="0" result="BackgroundImageFix"/>
<feBlend mode="normal" in="SourceGraphic" in2="BackgroundImageFix" result="shape"/>
<feGaussianBlur stdDeviation="2" result="effect1_foregroundBlur_1_2075"/>
</filter>
<filter id="filter1_f_1_2075" x="122.65" y="111.669" width="169.916" height="36.8131" filterUnits="userSpaceOnUse" color-interpolation-filters="sRGB">
<feFlood flood-opacity="0" result="BackgroundImageFix"/>
<feBlend mode="normal" in="SourceGraphic" in2="BackgroundImageFix" result="shape"/>
<feGaussianBlur stdDeviation="2" result="effect1_foregroundBlur_1_2075"/>
</filter>
<filter id="filter2_f_1_2075" x="38.6497" y="156.669" width="169.916" height="36.8131" filterUnits="userSpaceOnUse" color-interpolation-filters="sRGB">
<feFlood flood-opacity="0" result="BackgroundImageFix"/>
<feBlend mode="normal" in="SourceGraphic" in2="BackgroundImageFix" result="shape"/>
<feGaussianBlur stdDeviation="2" result="effect1_foregroundBlur_1_2075"/>
</filter>
<filter id="filter3_f_1_2075" x="34.3389" y="18.0271" width="228.02" height="156.02" filterUnits="userSpaceOnUse" color-interpolation-filters="sRGB">
<feFlood flood-opacity="0" result="BackgroundImageFix"/>
<feBlend mode="normal" in="SourceGraphic" in2="BackgroundImageFix" result="shape"/>
<feGaussianBlur stdDeviation="1" result="effect1_foregroundBlur_1_2075"/>
</filter>
<filter id="filter4_f_1_2075" x="8.33582" y="9.8956" width="115.852" height="112.397" filterUnits="userSpaceOnUse" color-interpolation-filters="sRGB">
<feFlood flood-opacity="0" result="BackgroundImageFix"/>
<feBlend mode="normal" in="SourceGraphic" in2="BackgroundImageFix" result="shape"/>
<feGaussianBlur stdDeviation="2" result="effect1_foregroundBlur_1_2075"/>
</filter>
</defs>
</svg>
