<svg width="345" height="331" viewBox="0 0 345 331" fill="none" xmlns="http://www.w3.org/2000/svg">
<g filter="url(#filter0_f_1_4)">
<path d="M113.253 199.835C113.782 200.318 102.713 224.126 96.281 231.525C89.849 238.924 81.9399 242.575 78.6132 239.683C75.2864 236.791 77.8002 228.452 84.2328 221.052C90.6655 213.652 112.725 199.351 113.253 199.835Z" fill="#42A0F0"/>
<path d="M85.3778 226.023C86.024 227.057 88.261 226.825 90.3742 225.504C92.4875 224.184 93.6768 222.275 93.0306 221.241C92.3844 220.207 90.1474 220.439 88.0341 221.759C85.9209 223.08 84.7316 224.988 85.3778 226.023Z" fill="white"/>
<path d="M181.253 199.835C181.782 200.318 170.713 224.126 164.281 231.525C157.849 238.924 149.94 242.575 146.613 239.683C143.286 236.791 145.8 228.452 152.233 221.052C158.665 213.652 180.725 199.351 181.253 199.835Z" fill="#42A0F0"/>
<path d="M153.378 226.023C154.024 227.057 156.261 226.825 158.374 225.504C160.487 224.184 161.677 222.275 161.031 221.241C160.384 220.207 158.147 220.439 156.034 221.759C153.921 223.08 152.732 224.988 153.378 226.023Z" fill="white"/>
<path d="M189.253 249.835C189.782 250.318 178.713 274.126 172.281 281.525C165.849 288.924 157.94 292.575 154.613 289.683C151.286 286.791 153.8 278.452 160.233 271.052C166.665 263.652 188.725 249.351 189.253 249.835Z" fill="#42A0F0"/>
<path d="M161.378 276.023C162.024 277.057 164.261 276.825 166.374 275.504C168.487 274.184 169.677 272.275 169.031 271.241C168.384 270.207 166.147 270.439 164.034 271.759C161.921 273.08 160.732 274.988 161.378 276.023Z" fill="white"/>
<path d="M272.253 249.835C272.782 250.318 261.713 274.126 255.281 281.525C248.849 288.924 240.94 292.575 237.613 289.683C234.286 286.791 236.8 278.452 243.233 271.052C249.665 263.652 271.725 249.351 272.253 249.835Z" fill="#42A0F0"/>
<path d="M244.378 276.023C245.024 277.057 247.261 276.825 249.374 275.504C251.487 274.184 252.677 272.275 252.031 271.241C251.384 270.207 249.147 270.439 247.034 271.759C244.921 273.08 243.732 274.988 244.378 276.023Z" fill="white"/>
<path d="M212.253 285.835C212.782 286.318 201.713 310.126 195.281 317.525C188.849 324.924 180.94 328.575 177.613 325.683C174.286 322.791 176.8 314.452 183.233 307.052C189.665 299.652 211.725 285.351 212.253 285.835Z" fill="#42A0F0"/>
<path d="M184.378 312.023C185.024 313.057 187.261 312.825 189.374 311.504C191.487 310.184 192.677 308.275 192.031 307.241C191.384 306.207 189.147 306.439 187.034 307.759C184.921 309.08 183.732 310.988 184.378 312.023Z" fill="white"/>
<path d="M136.253 285.835C136.782 286.318 125.713 310.126 119.281 317.525C112.849 324.924 104.94 328.575 101.613 325.683C98.2864 322.791 100.8 314.452 107.233 307.052C113.665 299.652 135.725 285.351 136.253 285.835Z" fill="#42A0F0"/>
<path d="M108.378 312.023C109.024 313.057 111.261 312.825 113.374 311.504C115.487 310.184 116.677 308.275 116.031 307.241C115.384 306.207 113.147 306.439 111.034 307.759C108.921 309.08 107.732 310.988 108.378 312.023Z" fill="white"/>
</g>
<path d="M106.986 242.557H127.536L115.722 259.905L129.535 260.167L100.547 294.481L107.567 268.319H94.707L106.986 242.557Z" fill="url(#paint0_linear_1_4)"/>
<path d="M226.986 211.557H247.536L235.722 228.905L249.535 229.167L220.547 263.481L227.567 237.319H214.707L226.986 211.557Z" fill="url(#paint1_linear_1_4)"/>
<g filter="url(#filter1_f_1_4)">
<path d="M90.487 175.295C75.2647 175.316 60.3894 170.749 47.801 162.19C36.3707 154.443 27.2384 143.76 21.3638 131.263C15.4892 118.767 13.0893 104.919 14.4162 91.1744C15.7432 77.43 20.748 64.2968 28.9047 53.155C37.0614 42.0133 48.0688 33.2745 60.77 27.857C70.1663 23.8591 80.2756 21.8077 90.487 21.827C93.4678 21.8271 96.4462 22.0001 99.407 22.345C97.6808 26.1196 96.3601 30.0667 95.467 34.12C94.5491 38.3035 94.0867 42.5741 94.088 46.857C94.0689 58.6102 97.5779 70.0985 104.161 79.835C108.405 86.1149 113.813 91.5232 120.093 95.767C123.249 97.8989 126.605 99.7201 130.112 101.205C137.375 104.279 145.184 105.855 153.071 105.84C157.634 105.842 162.182 105.317 166.624 104.275C165.576 118.709 160.46 132.551 151.869 144.197C149.09 147.965 145.974 151.472 142.559 154.676C128.467 167.938 109.839 175.315 90.487 175.295Z" fill="#713FFD"/>
</g>
<g filter="url(#filter2_f_1_4)">
<path d="M77.0539 88.0076C94.1917 72.5767 99.5265 50.5627 88.9696 38.838C78.4126 27.1133 55.9616 30.1178 38.8238 45.5488C21.6859 60.9798 16.3511 82.9937 26.9081 94.7184C37.465 106.443 59.9161 103.439 77.0539 88.0076Z" fill="#A586FC"/>
</g>
<g filter="url(#filter3_f_1_4)">
<path d="M52.986 2L55.551 8.2L62.486 10.5L55.551 12.8L52.986 19L50.421 12.8L43.486 10.5L50.421 8.2L52.986 2Z" fill="url(#paint2_linear_1_4)"/>
<path d="M167.486 149L169.646 154.11L175.486 156L169.646 157.89L167.486 163L165.326 157.89L159.486 156L165.326 154.11L167.486 149Z" fill="url(#paint3_linear_1_4)"/>
<path d="M133.489 21.6052L137.03 26.2472L143.344 26.6252L138.066 30.1112L137.322 35.902L133.781 31.2497L127.467 30.8716L132.745 27.3856L133.489 21.6052Z" fill="url(#paint4_linear_1_4)"/>
<path d="M7.1838 137.601L11.0048 141.196L16.9482 140.602L12.3921 144.464L12.3231 149.707L8.51299 146.109L2.56965 146.704L7.1265 142.843L7.1838 137.601Z" fill="url(#paint5_linear_1_4)"/>
<path d="M130.152 73.0386L125.953 73.8898L123.468 78.2424L123.142 73.241L119.741 70.6352L123.943 69.7866L126.427 65.4338L126.75 70.4347L130.152 73.0386Z" fill="url(#paint6_linear_1_4)"/>
</g>
<g filter="url(#filter4_df_1_4)">
<path d="M224.78 230.765C222.847 230.92 220.894 230.999 218.923 231H81.399C71.9328 231.035 62.5527 229.201 53.7968 225.603C45.041 222.005 37.0817 216.714 30.3756 210.032C23.6694 203.351 18.3483 195.412 14.7176 186.669C11.0868 177.927 9.21783 168.554 9.21783 159.087C9.21783 149.621 11.0868 140.248 14.7176 131.506C18.3483 122.763 23.6694 114.824 30.3756 108.143C37.0817 101.461 45.041 96.17 53.7968 92.5718C62.5527 88.9737 71.9328 87.1397 81.399 87.175H132.675C149.299 50.6 187.586 25 232.159 25C291.986 25 340.486 71.115 340.486 128C340.486 184.885 291.986 231 232.159 231C229.679 231 227.219 230.922 224.78 230.765Z" fill="url(#paint7_linear_1_4)"/>
<path d="M232.159 230C239.445 230 246.726 229.302 253.799 227.926C260.692 226.585 267.473 224.584 273.951 221.978C280.312 219.42 286.447 216.254 292.185 212.568C297.868 208.917 303.212 204.725 308.069 200.107C312.924 195.49 317.332 190.411 321.17 185.009C325.044 179.557 328.372 173.728 331.06 167.686C333.797 161.532 335.899 155.093 337.308 148.547C338.753 141.831 339.486 134.917 339.486 128C339.486 121.082 338.753 114.169 337.308 107.452C335.899 100.906 333.797 94.4673 331.06 88.3142C328.372 82.2716 325.044 76.4433 321.17 70.991C317.332 65.5893 312.924 60.5095 308.069 55.8928C303.212 51.2752 297.868 47.0829 292.185 43.4323C286.447 39.7461 280.312 36.5801 273.951 34.0221C267.473 31.4165 260.692 29.4154 253.799 28.0742C246.726 26.6979 239.445 26 232.159 26C210.788 26 190.149 31.9523 172.472 43.2135C163.952 48.6418 156.295 55.1939 149.715 62.6878C143.094 70.2291 137.667 78.6069 133.585 87.5885L133.318 88.1747H132.674H81.3987C71.8251 88.1747 62.5385 90.0495 53.7966 93.747C49.595 95.5242 45.5424 97.7238 41.7515 100.285C37.9964 102.822 34.4651 105.735 31.2559 108.945C28.0467 112.154 25.1332 115.685 22.5962 119.44C20.0351 123.231 17.8355 127.284 16.0583 131.485C12.3608 140.227 10.486 149.514 10.486 159.087C10.486 168.661 12.3608 177.948 16.0583 186.689C17.8355 190.891 20.0351 194.944 22.5962 198.735C25.1332 202.49 28.0467 206.021 31.2559 209.23C34.4651 212.439 37.9964 215.353 41.7515 217.89C45.5424 220.451 49.595 222.651 53.7966 224.428C62.5385 228.125 71.8251 230 81.3987 230H218.923C220.846 230 222.79 229.922 224.7 229.768L224.772 229.762L224.844 229.767C227.264 229.922 229.725 230 232.159 230ZM232.159 231C229.679 231 227.218 230.921 224.78 230.765C222.85 230.92 220.894 231 218.923 231H81.3987C41.6826 231 9.48602 198.803 9.48602 159.087C9.48602 119.371 41.6826 87.1747 81.3987 87.1747H132.674C149.299 50.5954 187.584 25 232.159 25C291.986 25 340.486 71.1151 340.486 128C340.486 184.885 291.986 231 232.159 231Z" fill="white" fill-opacity="0.5"/>
</g>
<defs>
<filter id="filter0_f_1_4" x="73.1441" y="195.823" width="203.127" height="134.852" filterUnits="userSpaceOnUse" color-interpolation-filters="sRGB">
<feFlood flood-opacity="0" result="BackgroundImageFix"/>
<feBlend mode="normal" in="SourceGraphic" in2="BackgroundImageFix" result="shape"/>
<feGaussianBlur stdDeviation="2" result="effect1_foregroundBlur_1_4"/>
</filter>
<filter id="filter1_f_1_4" x="10.0604" y="17.8269" width="160.564" height="161.468" filterUnits="userSpaceOnUse" color-interpolation-filters="sRGB">
<feFlood flood-opacity="0" result="BackgroundImageFix"/>
<feBlend mode="normal" in="SourceGraphic" in2="BackgroundImageFix" result="shape"/>
<feGaussianBlur stdDeviation="2" result="effect1_foregroundBlur_1_4"/>
</filter>
<filter id="filter2_f_1_4" x="1.48795" y="11.6858" width="112.902" height="110.185" filterUnits="userSpaceOnUse" color-interpolation-filters="sRGB">
<feFlood flood-opacity="0" result="BackgroundImageFix"/>
<feBlend mode="normal" in="SourceGraphic" in2="BackgroundImageFix" result="shape"/>
<feGaussianBlur stdDeviation="10" result="effect1_foregroundBlur_1_4"/>
</filter>
<filter id="filter3_f_1_4" x="0.569656" y="0" width="176.916" height="165" filterUnits="userSpaceOnUse" color-interpolation-filters="sRGB">
<feFlood flood-opacity="0" result="BackgroundImageFix"/>
<feBlend mode="normal" in="SourceGraphic" in2="BackgroundImageFix" result="shape"/>
<feGaussianBlur stdDeviation="1" result="effect1_foregroundBlur_1_4"/>
</filter>
<filter id="filter4_df_1_4" x="5.21783" y="21" width="339.268" height="218" filterUnits="userSpaceOnUse" color-interpolation-filters="sRGB">
<feFlood flood-opacity="0" result="BackgroundImageFix"/>
<feColorMatrix in="SourceAlpha" type="matrix" values="0 0 0 0 0 0 0 0 0 0 0 0 0 0 0 0 0 0 127 0" result="hardAlpha"/>
<feOffset dy="4"/>
<feGaussianBlur stdDeviation="2"/>
<feColorMatrix type="matrix" values="0 0 0 0 0.258824 0 0 0 0 0.627451 0 0 0 0 0.941176 0 0 0 0.596 0"/>
<feBlend mode="normal" in2="BackgroundImageFix" result="effect1_dropShadow_1_4"/>
<feBlend mode="normal" in="SourceGraphic" in2="effect1_dropShadow_1_4" result="shape"/>
<feGaussianBlur stdDeviation="2" result="effect2_foregroundBlur_1_4"/>
</filter>
<linearGradient id="paint0_linear_1_4" x1="108.917" y1="268.519" x2="92.6485" y2="262.555" gradientUnits="userSpaceOnUse">
<stop stop-color="#FFD100"/>
<stop offset="1" stop-color="#FFF0AA"/>
</linearGradient>
<linearGradient id="paint1_linear_1_4" x1="228.917" y1="237.519" x2="212.649" y2="231.555" gradientUnits="userSpaceOnUse">
<stop stop-color="#FFD100"/>
<stop offset="1" stop-color="#FFF0AA"/>
</linearGradient>
<linearGradient id="paint2_linear_1_4" x1="52.986" y1="2" x2="52.986" y2="19" gradientUnits="userSpaceOnUse">
<stop stop-color="#6B38FC"/>
<stop offset="1" stop-color="#9F7EFD"/>
</linearGradient>
<linearGradient id="paint3_linear_1_4" x1="167.486" y1="149" x2="167.486" y2="163" gradientUnits="userSpaceOnUse">
<stop stop-color="#6B38FC"/>
<stop offset="1" stop-color="#9F7EFD"/>
</linearGradient>
<linearGradient id="paint4_linear_1_4" x1="133.49" y1="21.6048" x2="137.323" y2="35.9016" gradientUnits="userSpaceOnUse">
<stop stop-color="#6B38FC"/>
<stop offset="1" stop-color="#9F7EFD"/>
</linearGradient>
<linearGradient id="paint5_linear_1_4" x1="7.18887" y1="137.599" x2="12.3282" y2="149.705" gradientUnits="userSpaceOnUse">
<stop stop-color="#6B38FC"/>
<stop offset="1" stop-color="#9F7EFD"/>
</linearGradient>
<linearGradient id="paint6_linear_1_4" x1="130.151" y1="73.0395" x2="119.741" y2="70.6362" gradientUnits="userSpaceOnUse">
<stop stop-color="#6B38FC"/>
<stop offset="1" stop-color="#9F7EFD"/>
</linearGradient>
<linearGradient id="paint7_linear_1_4" x1="143.381" y1="50.9561" x2="209.424" y2="242.168" gradientUnits="userSpaceOnUse">
<stop stop-color="white" stop-opacity="0.596"/>
<stop offset="1" stop-color="#F7F7F7" stop-opacity="0.204"/>
</linearGradient>
</defs>
</svg>
