<svg width="409" height="347" viewBox="0 0 409 347" fill="none" xmlns="http://www.w3.org/2000/svg">
<g filter="url(#filter0_f_1_544)">
<path d="M156.083 148.295V157.143" stroke="#42A0F0" stroke-linecap="round"/>
<path d="M155.891 150.454L157.33 149.734" stroke="#42A0F0" stroke-linecap="round"/>
<path d="M155.891 150.454L153.732 149.734" stroke="#42A0F0" stroke-linecap="round"/>
<path d="M155.891 155.492L157.33 156.212" stroke="#42A0F0" stroke-linecap="round"/>
<path d="M155.891 155.492L153.732 156.212" stroke="#42A0F0" stroke-linecap="round"/>
<path d="M159.892 150.544L152.23 154.968" stroke="#42A0F0" stroke-linecap="round"/>
<path d="M158.01 151.61L160.135 152.143" stroke="#42A0F0" stroke-linecap="round"/>
<path d="M158.01 151.61L158.586 149.461" stroke="#42A0F0" stroke-linecap="round"/>
<path d="M153.924 153.969L153.323 156.076" stroke="#42A0F0" stroke-linecap="round"/>
<path d="M153.924 153.969L151.775 153.394" stroke="#42A0F0" stroke-linecap="round"/>
<path d="M159.849 154.968L152.187 150.544" stroke="#42A0F0" stroke-linecap="round"/>
<path d="M157.985 153.871L158.586 155.977" stroke="#42A0F0" stroke-linecap="round"/>
<path d="M157.985 153.871L160.134 153.295" stroke="#42A0F0" stroke-linecap="round"/>
<path d="M153.898 151.511L151.774 152.045" stroke="#42A0F0" stroke-linecap="round"/>
<path d="M153.898 151.511L153.323 149.363" stroke="#42A0F0" stroke-linecap="round"/>
</g>
<g filter="url(#filter1_f_1_544)">
<path d="M278.153 167.885V183.053" stroke="#42A0F0" stroke-linecap="round"/>
<path d="M277.521 171.326L280.4 170.606" stroke="#42A0F0" stroke-linecap="round"/>
<path d="M277.521 171.326L273.922 170.606" stroke="#42A0F0" stroke-linecap="round"/>
<path d="M277.521 179.962L280.4 181.401" stroke="#42A0F0" stroke-linecap="round"/>
<path d="M277.521 179.962L273.922 181.401" stroke="#42A0F0" stroke-linecap="round"/>
<path d="M284.685 171.74L271.549 179.324" stroke="#42A0F0" stroke-linecap="round"/>
<path d="M281.459 173.566L285.099 174.48" stroke="#42A0F0" stroke-linecap="round"/>
<path d="M281.459 173.566L282.445 169.884" stroke="#42A0F0" stroke-linecap="round"/>
<path d="M274.453 177.611L273.424 181.222" stroke="#42A0F0" stroke-linecap="round"/>
<path d="M274.452 177.611L270.77 176.625" stroke="#42A0F0" stroke-linecap="round"/>
<path d="M284.611 179.324L271.476 171.74" stroke="#42A0F0" stroke-linecap="round"/>
<path d="M281.417 177.443L282.445 181.053" stroke="#42A0F0" stroke-linecap="round"/>
<path d="M281.417 177.443L285.099 176.457" stroke="#42A0F0" stroke-linecap="round"/>
<path d="M274.41 173.398L270.77 174.312" stroke="#42A0F0" stroke-linecap="round"/>
<path d="M274.41 173.398L273.424 169.715" stroke="#42A0F0" stroke-linecap="round"/>
</g>
<g filter="url(#filter2_f_1_544)">
<path d="M366.809 191.439V203.892" stroke="#42A0F0" stroke-linecap="round"/>
<path d="M366.164 194.16L368.323 193.44" stroke="#42A0F0" stroke-linecap="round"/>
<path d="M366.164 194.16L363.285 193.44" stroke="#42A0F0" stroke-linecap="round"/>
<path d="M366.164 201.357L368.323 202.796" stroke="#42A0F0" stroke-linecap="round"/>
<path d="M366.164 201.357L363.285 202.796" stroke="#42A0F0" stroke-linecap="round"/>
<path d="M372.171 194.604L361.387 200.831" stroke="#42A0F0" stroke-linecap="round"/>
<path d="M369.523 196.104L372.513 196.855" stroke="#42A0F0" stroke-linecap="round"/>
<path d="M369.523 196.104L370.333 193.08" stroke="#42A0F0" stroke-linecap="round"/>
<path d="M363.771 199.425L362.927 202.39" stroke="#42A0F0" stroke-linecap="round"/>
<path d="M363.771 199.425L360.747 198.615" stroke="#42A0F0" stroke-linecap="round"/>
<path d="M372.111 200.83L361.327 194.604" stroke="#42A0F0" stroke-linecap="round"/>
<path d="M369.488 199.286L370.333 202.251" stroke="#42A0F0" stroke-linecap="round"/>
<path d="M369.488 199.286L372.512 198.476" stroke="#42A0F0" stroke-linecap="round"/>
<path d="M363.737 195.966L360.747 196.717" stroke="#42A0F0" stroke-linecap="round"/>
<path d="M363.737 195.966L362.926 192.942" stroke="#42A0F0" stroke-linecap="round"/>
</g>
<g filter="url(#filter3_f_1_544)">
<path d="M60.552 244.227V255.196" stroke="#42A0F0" stroke-linecap="round"/>
<path d="M59.966 246.948L62.125 246.228" stroke="#42A0F0" stroke-linecap="round"/>
<path d="M59.966 246.948L57.807 246.228" stroke="#42A0F0" stroke-linecap="round"/>
<path d="M59.966 252.705L62.125 254.144" stroke="#42A0F0" stroke-linecap="round"/>
<path d="M59.966 252.705L57.807 254.144" stroke="#42A0F0" stroke-linecap="round"/>
<path d="M65.276 247.015L55.7766 252.499" stroke="#42A0F0" stroke-linecap="round"/>
<path d="M62.9431 248.336L65.5764 248.997" stroke="#42A0F0" stroke-linecap="round"/>
<path d="M62.9432 248.336L63.6569 245.672" stroke="#42A0F0" stroke-linecap="round"/>
<path d="M57.876 251.262L57.1318 253.873" stroke="#42A0F0" stroke-linecap="round"/>
<path d="M57.8761 251.262L55.2123 250.548" stroke="#42A0F0" stroke-linecap="round"/>
<path d="M65.223 252.499L55.7235 247.014" stroke="#42A0F0" stroke-linecap="round"/>
<path d="M62.9122 251.139L63.6565 253.75" stroke="#42A0F0" stroke-linecap="round"/>
<path d="M62.9122 251.139L65.5759 250.426" stroke="#42A0F0" stroke-linecap="round"/>
<path d="M57.8451 248.214L55.2118 248.875" stroke="#42A0F0" stroke-linecap="round"/>
<path d="M57.8451 248.214L57.1313 245.55" stroke="#42A0F0" stroke-linecap="round"/>
</g>
<g filter="url(#filter4_f_1_544)">
<path d="M216.161 286.166V295.063" stroke="#42A0F0" stroke-linecap="round"/>
<path d="M215.944 288.167L217.383 287.447" stroke="#42A0F0" stroke-linecap="round"/>
<path d="M215.944 288.167L213.785 287.447" stroke="#42A0F0" stroke-linecap="round"/>
<path d="M215.944 293.205L217.383 293.925" stroke="#42A0F0" stroke-linecap="round"/>
<path d="M215.944 293.205L213.785 293.925" stroke="#42A0F0" stroke-linecap="round"/>
<path d="M219.992 288.427L212.286 292.875" stroke="#42A0F0" stroke-linecap="round"/>
<path d="M218.099 289.499L220.235 290.035" stroke="#42A0F0" stroke-linecap="round"/>
<path d="M218.099 289.499L218.678 287.338" stroke="#42A0F0" stroke-linecap="round"/>
<path d="M213.99 291.872L213.386 293.99" stroke="#42A0F0" stroke-linecap="round"/>
<path d="M213.99 291.872L211.829 291.293" stroke="#42A0F0" stroke-linecap="round"/>
<path d="M219.95 292.875L212.244 288.426" stroke="#42A0F0" stroke-linecap="round"/>
<path d="M218.074 291.773L218.678 293.89" stroke="#42A0F0" stroke-linecap="round"/>
<path d="M218.074 291.773L220.235 291.194" stroke="#42A0F0" stroke-linecap="round"/>
<path d="M213.965 289.4L211.829 289.936" stroke="#42A0F0" stroke-linecap="round"/>
<path d="M213.965 289.4L213.386 287.239" stroke="#42A0F0" stroke-linecap="round"/>
</g>
<g filter="url(#filter5_f_1_544)">
<path d="M299.194 263.003V339.795" stroke="#42A0F0" stroke-width="6" stroke-linecap="round"/>
<path d="M299.04 281.774L312.265 268.122" stroke="#42A0F0" stroke-width="6" stroke-linecap="round"/>
<path d="M299.04 281.774L285.388 268.122" stroke="#42A0F0" stroke-width="6" stroke-linecap="round"/>
<path d="M299.04 322.73L312.265 336.382" stroke="#42A0F0" stroke-width="6" stroke-linecap="round"/>
<path d="M299.04 322.73L285.388 336.382" stroke="#42A0F0" stroke-width="6" stroke-linecap="round"/>
<path d="M332.262 282.519L265.758 320.915" stroke="#42A0F0" stroke-width="6" stroke-linecap="round"/>
<path d="M315.929 291.772L334.364 296.399" stroke="#42A0F0" stroke-width="6" stroke-linecap="round"/>
<path d="M315.929 291.772L320.926 273.123" stroke="#42A0F0" stroke-width="6" stroke-linecap="round"/>
<path d="M280.46 312.25L275.249 330.529" stroke="#42A0F0" stroke-width="6" stroke-linecap="round"/>
<path d="M280.46 312.249L261.811 307.253" stroke="#42A0F0" stroke-width="6" stroke-linecap="round"/>
<path d="M331.894 320.915L265.39 282.519" stroke="#42A0F0" stroke-width="6" stroke-linecap="round"/>
<path d="M315.715 311.396L320.925 329.676" stroke="#42A0F0" stroke-width="6" stroke-linecap="round"/>
<path d="M315.715 311.396L334.364 306.399" stroke="#42A0F0" stroke-width="6" stroke-linecap="round"/>
<path d="M280.246 290.918L261.81 295.546" stroke="#42A0F0" stroke-width="6" stroke-linecap="round"/>
<path d="M280.246 290.918L275.249 272.269" stroke="#42A0F0" stroke-width="6" stroke-linecap="round"/>
<path d="M212.194 175.003V251.795" stroke="#42A0F0" stroke-width="6" stroke-linecap="round"/>
<path d="M212.04 193.774L225.265 180.122" stroke="#42A0F0" stroke-width="6" stroke-linecap="round"/>
<path d="M212.04 193.774L198.388 180.122" stroke="#42A0F0" stroke-width="6" stroke-linecap="round"/>
<path d="M212.04 234.73L225.265 248.382" stroke="#42A0F0" stroke-width="6" stroke-linecap="round"/>
<path d="M212.04 234.73L198.388 248.382" stroke="#42A0F0" stroke-width="6" stroke-linecap="round"/>
<path d="M245.262 194.519L178.758 232.915" stroke="#42A0F0" stroke-width="6" stroke-linecap="round"/>
<path d="M228.929 203.772L247.364 208.399" stroke="#42A0F0" stroke-width="6" stroke-linecap="round"/>
<path d="M228.929 203.772L233.926 185.123" stroke="#42A0F0" stroke-width="6" stroke-linecap="round"/>
<path d="M193.46 224.25L188.249 242.529" stroke="#42A0F0" stroke-width="6" stroke-linecap="round"/>
<path d="M193.46 224.25L174.811 219.253" stroke="#42A0F0" stroke-width="6" stroke-linecap="round"/>
<path d="M244.894 232.915L178.39 194.519" stroke="#42A0F0" stroke-width="6" stroke-linecap="round"/>
<path d="M228.715 223.397L233.925 241.676" stroke="#42A0F0" stroke-width="6" stroke-linecap="round"/>
<path d="M228.715 223.397L247.364 218.4" stroke="#42A0F0" stroke-width="6" stroke-linecap="round"/>
<path d="M193.246 202.919L174.81 207.546" stroke="#42A0F0" stroke-width="6" stroke-linecap="round"/>
<path d="M193.246 202.919L188.249 184.27" stroke="#42A0F0" stroke-width="6" stroke-linecap="round"/>
<path d="M143.194 263.003V339.795" stroke="#42A0F0" stroke-width="6" stroke-linecap="round"/>
<path d="M143.04 281.774L156.265 268.122" stroke="#42A0F0" stroke-width="6" stroke-linecap="round"/>
<path d="M143.04 281.774L129.388 268.122" stroke="#42A0F0" stroke-width="6" stroke-linecap="round"/>
<path d="M143.04 322.73L156.265 336.382" stroke="#42A0F0" stroke-width="6" stroke-linecap="round"/>
<path d="M143.04 322.73L129.388 336.382" stroke="#42A0F0" stroke-width="6" stroke-linecap="round"/>
<path d="M176.262 282.519L109.758 320.915" stroke="#42A0F0" stroke-width="6" stroke-linecap="round"/>
<path d="M159.929 291.772L178.364 296.399" stroke="#42A0F0" stroke-width="6" stroke-linecap="round"/>
<path d="M159.929 291.772L164.926 273.123" stroke="#42A0F0" stroke-width="6" stroke-linecap="round"/>
<path d="M124.46 312.25L119.249 330.529" stroke="#42A0F0" stroke-width="6" stroke-linecap="round"/>
<path d="M124.46 312.249L105.811 307.253" stroke="#42A0F0" stroke-width="6" stroke-linecap="round"/>
<path d="M175.894 320.915L109.39 282.519" stroke="#42A0F0" stroke-width="6" stroke-linecap="round"/>
<path d="M159.715 311.396L164.925 329.676" stroke="#42A0F0" stroke-width="6" stroke-linecap="round"/>
<path d="M159.715 311.396L178.364 306.399" stroke="#42A0F0" stroke-width="6" stroke-linecap="round"/>
<path d="M124.246 290.918L105.81 295.546" stroke="#42A0F0" stroke-width="6" stroke-linecap="round"/>
<path d="M124.246 290.918L119.249 272.269" stroke="#42A0F0" stroke-width="6" stroke-linecap="round"/>
</g>
<g filter="url(#filter6_f_1_544)">
<path d="M90.487 178.295C75.2647 178.316 60.3894 173.749 47.801 165.19C36.3707 157.443 27.2384 146.76 21.3638 134.263C15.4892 121.767 13.0893 107.919 14.4162 94.1744C15.7431 80.43 20.748 67.2968 28.9047 56.155C37.0614 45.0133 48.0688 36.2745 60.77 30.857C70.1662 26.8591 80.2756 24.8077 90.487 24.827C93.4678 24.8271 96.4462 25.0001 99.407 25.345C97.6808 29.1196 96.36 33.0667 95.467 37.12C94.5491 41.3035 94.0867 45.5741 94.088 49.857C94.0688 61.6102 97.5779 73.0985 104.161 82.835C108.405 89.1149 113.813 94.5232 120.093 98.767C123.249 100.899 126.605 102.72 130.112 104.205C137.375 107.279 145.184 108.855 153.071 108.84C157.634 108.842 162.182 108.317 166.624 107.275C165.576 121.709 160.46 135.551 151.869 147.197C149.09 150.965 145.974 154.472 142.559 157.676C128.466 170.938 109.839 178.315 90.487 178.295Z" fill="#713FFD"/>
</g>
<g filter="url(#filter7_f_1_544)">
<path d="M77.0539 91.0076C94.1917 75.5767 99.5265 53.5627 88.9696 41.838C78.4126 30.1133 55.9616 33.1178 38.8238 48.5488C21.686 63.9798 16.3511 85.9937 26.9081 97.7184C37.465 109.443 59.9161 106.439 77.0539 91.0076Z" fill="#A586FC"/>
</g>
<g filter="url(#filter8_f_1_544)">
<path d="M52.986 5L55.551 11.2L62.486 13.5L55.551 15.8L52.986 22L50.421 15.8L43.486 13.5L50.421 11.2L52.986 5Z" fill="url(#paint0_linear_1_544)"/>
<path d="M167.486 152L169.646 157.11L175.486 159L169.646 160.89L167.486 166L165.326 160.89L159.486 159L165.326 157.11L167.486 152Z" fill="url(#paint1_linear_1_544)"/>
<path d="M133.489 24.6053L137.03 29.2473L143.344 29.6253L138.066 33.1113L137.322 38.9021L133.781 34.2498L127.467 33.8718L132.745 30.3858L133.489 24.6053Z" fill="url(#paint2_linear_1_544)"/>
<path d="M7.1838 140.601L11.0048 144.197L16.9482 143.602L12.3921 147.464L12.3231 152.707L8.51299 149.109L2.56965 149.704L7.1265 145.843L7.1838 140.601Z" fill="url(#paint3_linear_1_544)"/>
<path d="M130.152 76.0386L125.953 76.8898L123.468 81.2424L123.142 76.241L119.741 73.6352L123.943 72.7866L126.427 68.4338L126.75 73.4347L130.152 76.0386Z" fill="url(#paint4_linear_1_544)"/>
</g>
<g filter="url(#filter9_d_1_544)">
<g filter="url(#filter10_d_1_544)">
<path d="M252.78 233.765C250.847 233.92 248.894 233.999 246.923 234H109.399C99.9328 234.035 90.5527 232.201 81.7968 228.603C73.041 225.005 65.0817 219.714 58.3756 213.032C51.6694 206.351 46.3483 198.412 42.7176 189.669C39.0868 180.927 37.2178 171.554 37.2178 162.087C37.2178 152.621 39.0868 143.248 42.7176 134.506C46.3483 125.763 51.6694 117.824 58.3756 111.143C65.0817 104.461 73.041 99.17 81.7968 95.5718C90.5527 91.9737 99.9328 90.1397 109.399 90.175H160.675C177.299 53.6 215.586 28 260.159 28C319.986 28 368.486 74.115 368.486 131C368.486 187.885 319.986 234 260.159 234C257.679 234 255.219 233.922 252.78 233.765Z" fill="url(#paint5_linear_1_544)"/>
<path d="M260.159 233C267.445 233 274.726 232.302 281.799 230.926C288.692 229.585 295.473 227.584 301.951 224.978C308.312 222.42 314.447 219.254 320.185 215.568C325.868 211.917 331.212 207.725 336.069 203.107C340.924 198.49 345.332 193.411 349.17 188.009C353.044 182.557 356.372 176.728 359.06 170.686C361.797 164.532 363.899 158.093 365.308 151.547C366.753 144.831 367.486 137.917 367.486 131C367.486 124.082 366.753 117.169 365.308 110.452C363.899 103.906 361.797 97.4673 359.06 91.3142C356.372 85.2716 353.044 79.4433 349.17 73.991C345.332 68.5893 340.924 63.5095 336.069 58.8928C331.212 54.2752 325.868 50.0829 320.185 46.4323C314.447 42.7461 308.312 39.5801 301.951 37.0221C295.473 34.4165 288.692 32.4154 281.799 31.0742C274.726 29.6979 267.445 29 260.159 29C238.788 29 218.149 34.9523 200.472 46.2135C191.952 51.6418 184.295 58.1939 177.715 65.6878C171.094 73.2291 165.667 81.6069 161.585 90.5885L161.318 91.1747H160.674H109.399C99.8251 91.1747 90.5385 93.0495 81.7966 96.747C77.595 98.5242 73.5424 100.724 69.7515 103.285C65.9964 105.822 62.4651 108.735 59.2559 111.945C56.0467 115.154 53.1332 118.685 50.5962 122.44C48.0351 126.231 45.8355 130.284 44.0583 134.485C40.3608 143.227 38.486 152.514 38.486 162.087C38.486 171.661 40.3608 180.948 44.0583 189.689C45.8355 193.891 48.0351 197.944 50.5962 201.735C53.1332 205.49 56.0467 209.021 59.2559 212.23C62.4651 215.439 65.9964 218.353 69.7515 220.89C73.5424 223.451 77.595 225.651 81.7966 227.428C90.5385 231.125 99.8251 233 109.399 233H246.923C248.846 233 250.79 232.922 252.7 232.768L252.772 232.762L252.844 232.767C255.264 232.922 257.725 233 260.159 233ZM260.159 234C257.679 234 255.218 233.921 252.78 233.765C250.85 233.92 248.894 234 246.923 234H109.399C69.6826 234 37.486 201.803 37.486 162.087C37.486 122.371 69.6826 90.1747 109.399 90.1747H160.674C177.299 53.5954 215.584 28 260.159 28C319.986 28 368.486 74.1151 368.486 131C368.486 187.885 319.986 234 260.159 234Z" fill="white" fill-opacity="0.5"/>
</g>
</g>
<defs>
<filter id="filter0_f_1_544" x="149.274" y="145.795" width="13.3606" height="13.848" filterUnits="userSpaceOnUse" color-interpolation-filters="sRGB">
<feFlood flood-opacity="0" result="BackgroundImageFix"/>
<feBlend mode="normal" in="SourceGraphic" in2="BackgroundImageFix" result="shape"/>
<feGaussianBlur stdDeviation="1" result="effect1_foregroundBlur_1_544"/>
</filter>
<filter id="filter1_f_1_544" x="268.27" y="165.385" width="19.33" height="20.168" filterUnits="userSpaceOnUse" color-interpolation-filters="sRGB">
<feFlood flood-opacity="0" result="BackgroundImageFix"/>
<feBlend mode="normal" in="SourceGraphic" in2="BackgroundImageFix" result="shape"/>
<feGaussianBlur stdDeviation="1" result="effect1_foregroundBlur_1_544"/>
</filter>
<filter id="filter2_f_1_544" x="358.247" y="188.939" width="16.7662" height="17.453" filterUnits="userSpaceOnUse" color-interpolation-filters="sRGB">
<feFlood flood-opacity="0" result="BackgroundImageFix"/>
<feBlend mode="normal" in="SourceGraphic" in2="BackgroundImageFix" result="shape"/>
<feGaussianBlur stdDeviation="1" result="effect1_foregroundBlur_1_544"/>
</filter>
<filter id="filter3_f_1_544" x="52.7117" y="241.727" width="15.3648" height="15.969" filterUnits="userSpaceOnUse" color-interpolation-filters="sRGB">
<feFlood flood-opacity="0" result="BackgroundImageFix"/>
<feBlend mode="normal" in="SourceGraphic" in2="BackgroundImageFix" result="shape"/>
<feGaussianBlur stdDeviation="1" result="effect1_foregroundBlur_1_544"/>
</filter>
<filter id="filter4_f_1_544" x="209.329" y="283.666" width="13.4067" height="13.897" filterUnits="userSpaceOnUse" color-interpolation-filters="sRGB">
<feFlood flood-opacity="0" result="BackgroundImageFix"/>
<feBlend mode="normal" in="SourceGraphic" in2="BackgroundImageFix" result="shape"/>
<feGaussianBlur stdDeviation="1" result="effect1_foregroundBlur_1_544"/>
</filter>
<filter id="filter5_f_1_544" x="98.8097" y="168.003" width="242.555" height="178.792" filterUnits="userSpaceOnUse" color-interpolation-filters="sRGB">
<feFlood flood-opacity="0" result="BackgroundImageFix"/>
<feBlend mode="normal" in="SourceGraphic" in2="BackgroundImageFix" result="shape"/>
<feGaussianBlur stdDeviation="2" result="effect1_foregroundBlur_1_544"/>
</filter>
<filter id="filter6_f_1_544" x="10.0604" y="20.8269" width="160.564" height="161.468" filterUnits="userSpaceOnUse" color-interpolation-filters="sRGB">
<feFlood flood-opacity="0" result="BackgroundImageFix"/>
<feBlend mode="normal" in="SourceGraphic" in2="BackgroundImageFix" result="shape"/>
<feGaussianBlur stdDeviation="2" result="effect1_foregroundBlur_1_544"/>
</filter>
<filter id="filter7_f_1_544" x="1.48798" y="14.6858" width="112.902" height="110.185" filterUnits="userSpaceOnUse" color-interpolation-filters="sRGB">
<feFlood flood-opacity="0" result="BackgroundImageFix"/>
<feBlend mode="normal" in="SourceGraphic" in2="BackgroundImageFix" result="shape"/>
<feGaussianBlur stdDeviation="10" result="effect1_foregroundBlur_1_544"/>
</filter>
<filter id="filter8_f_1_544" x="0.569641" y="3" width="176.916" height="165" filterUnits="userSpaceOnUse" color-interpolation-filters="sRGB">
<feFlood flood-opacity="0" result="BackgroundImageFix"/>
<feBlend mode="normal" in="SourceGraphic" in2="BackgroundImageFix" result="shape"/>
<feGaussianBlur stdDeviation="1" result="effect1_foregroundBlur_1_544"/>
</filter>
<filter id="filter9_d_1_544" x="17.2178" y="0" width="391.268" height="266" filterUnits="userSpaceOnUse" color-interpolation-filters="sRGB">
<feFlood flood-opacity="0" result="BackgroundImageFix"/>
<feColorMatrix in="SourceAlpha" type="matrix" values="0 0 0 0 0 0 0 0 0 0 0 0 0 0 0 0 0 0 127 0" result="hardAlpha"/>
<feOffset dx="10" dy="2"/>
<feGaussianBlur stdDeviation="15"/>
<feColorMatrix type="matrix" values="0 0 0 0 0.258824 0 0 0 0 0.627451 0 0 0 0 0.941176 0 0 0 0.596 0"/>
<feBlend mode="normal" in2="BackgroundImageFix" result="effect1_dropShadow_1_544"/>
<feBlend mode="normal" in="SourceGraphic" in2="effect1_dropShadow_1_544" result="shape"/>
</filter>
<filter id="filter10_d_1_544" x="17.2178" y="0" width="391.268" height="266" filterUnits="userSpaceOnUse" color-interpolation-filters="sRGB">
<feFlood flood-opacity="0" result="BackgroundImageFix"/>
<feColorMatrix in="SourceAlpha" type="matrix" values="0 0 0 0 0 0 0 0 0 0 0 0 0 0 0 0 0 0 127 0" result="hardAlpha"/>
<feOffset dx="10" dy="2"/>
<feGaussianBlur stdDeviation="15"/>
<feColorMatrix type="matrix" values="0 0 0 0 0.501961 0 0 0 0 0.501961 0 0 0 0 0.501961 0 0 0 0.302 0"/>
<feBlend mode="normal" in2="BackgroundImageFix" result="effect1_dropShadow_1_544"/>
<feBlend mode="normal" in="SourceGraphic" in2="effect1_dropShadow_1_544" result="shape"/>
</filter>
<linearGradient id="paint0_linear_1_544" x1="52.986" y1="5" x2="52.986" y2="22" gradientUnits="userSpaceOnUse">
<stop stop-color="#6B38FC"/>
<stop offset="1" stop-color="#9F7EFD"/>
</linearGradient>
<linearGradient id="paint1_linear_1_544" x1="167.486" y1="152" x2="167.486" y2="166" gradientUnits="userSpaceOnUse">
<stop stop-color="#6B38FC"/>
<stop offset="1" stop-color="#9F7EFD"/>
</linearGradient>
<linearGradient id="paint2_linear_1_544" x1="133.49" y1="24.605" x2="137.323" y2="38.9018" gradientUnits="userSpaceOnUse">
<stop stop-color="#6B38FC"/>
<stop offset="1" stop-color="#9F7EFD"/>
</linearGradient>
<linearGradient id="paint3_linear_1_544" x1="7.18887" y1="140.599" x2="12.3282" y2="152.705" gradientUnits="userSpaceOnUse">
<stop stop-color="#6B38FC"/>
<stop offset="1" stop-color="#9F7EFD"/>
</linearGradient>
<linearGradient id="paint4_linear_1_544" x1="130.151" y1="76.0395" x2="119.741" y2="73.6362" gradientUnits="userSpaceOnUse">
<stop stop-color="#6B38FC"/>
<stop offset="1" stop-color="#9F7EFD"/>
</linearGradient>
<linearGradient id="paint5_linear_1_544" x1="171.381" y1="53.9561" x2="237.424" y2="245.168" gradientUnits="userSpaceOnUse">
<stop stop-color="white" stop-opacity="0.596"/>
<stop offset="1" stop-color="#F7F7F7" stop-opacity="0.204"/>
</linearGradient>
</defs>
</svg>
