<svg width="284" height="194" viewBox="0 0 284 194" fill="none" xmlns="http://www.w3.org/2000/svg">
<g filter="url(#filter0_f_1_2545)">
<path d="M155.006 99.8069C155.006 99.8069 219.917 103.315 248.706 94.9549C277.495 86.5949 277.454 43.2089 248.706 32.5139C219.958 21.8189 210.133 60.0469 210.133 60.0469" stroke="#D0D0D0" stroke-width="16" stroke-linecap="round"/>
<path d="M43.3521 146.668C43.3521 146.668 140.921 137.853 183.934 146.668C226.947 155.483 213.251 180.768 192.866 181.929C172.481 183.09 153.666 169.691 153.666 169.691" stroke="#D0D0D0" stroke-width="16" stroke-linecap="round"/>
</g>
<g filter="url(#filter1_f_1_2545)">
<path d="M71.819 129.967C60.5783 129.982 49.5938 126.61 40.298 120.29C31.8564 114.57 25.1117 106.681 20.773 97.4525C16.4342 88.2243 14.6616 77.9977 15.6414 67.8476C16.6212 57.6976 20.3173 47.9989 26.3411 39.771C32.3649 31.5432 40.494 25.0901 49.874 21.09C56.8131 18.1389 64.2785 16.6254 71.819 16.641C74.0202 16.6411 76.2196 16.769 78.406 17.024C75.8035 22.7024 74.4634 28.8776 74.478 35.124C74.4812 43.6863 77.0054 52.0582 81.7358 59.1952C86.4662 66.3322 93.1933 71.9185 101.078 75.257C106.441 77.527 112.208 78.6913 118.032 78.68C121.402 78.6812 124.761 78.2933 128.042 77.524C127.018 91.7472 120.654 105.057 110.226 114.784C99.7981 124.51 86.0779 129.934 71.818 129.967H71.819Z" fill="#713FFD"/>
<g filter="url(#filter2_f_1_2545)">
<path d="M61.8998 65.5113C74.5549 54.1166 78.4942 37.8607 70.6986 29.2027C62.9029 20.5448 46.3243 22.7633 33.6691 34.1581C21.014 45.5528 17.0746 61.8087 24.8703 70.4667C32.666 79.1246 49.2446 76.9061 61.8998 65.5113Z" fill="#A586FC"/>
</g>
<path d="M44.852 2L46.607 6.38L51.352 8L46.607 9.62L44.852 14L43.097 9.62L38.352 8L43.097 6.38L44.852 2Z" fill="url(#paint0_linear_1_2545)"/>
<path d="M128.352 110L129.972 114.015L134.352 115.5L129.972 116.985L128.352 121L126.732 116.985L122.352 115.5L126.732 114.015L128.352 110Z" fill="url(#paint1_linear_1_2545)"/>
<path d="M103.573 16.478L106.184 19.9052L110.847 20.1812L106.947 22.753L106.401 27.0257L103.786 23.6005L99.1272 23.3234L103.023 20.7527L103.573 16.478Z" fill="url(#paint2_linear_1_2545)"/>
<path d="M10.3077 102.132L13.1261 104.786L17.513 104.348L14.1505 107.199L14.1028 111.071L11.2844 108.416L6.89752 108.855L10.26 106.003L10.3077 102.132Z" fill="url(#paint3_linear_1_2545)"/>
<path d="M101.108 54.4576L98.0094 55.0866L96.1747 58.2993L95.934 54.6075L93.4244 52.6837L96.5234 52.0546L98.3581 48.842L98.5988 52.5338L101.108 54.4576Z" fill="url(#paint4_linear_1_2545)"/>
</g>
<g filter="url(#filter3_f_1_2545)">
<path d="M252.936 117.296H278.592L263.847 138.954L281.091 139.28L244.891 182.12L253.661 149.458H237.607L252.936 117.296Z" fill="url(#paint5_linear_1_2545)"/>
</g>
<defs>
<filter id="filter0_f_1_2545" x="31.3516" y="18.6257" width="250.931" height="175.375" filterUnits="userSpaceOnUse" color-interpolation-filters="sRGB">
<feFlood flood-opacity="0" result="BackgroundImageFix"/>
<feBlend mode="normal" in="SourceGraphic" in2="BackgroundImageFix" result="shape"/>
<feGaussianBlur stdDeviation="2" result="effect1_foregroundBlur_1_2545"/>
</filter>
<filter id="filter1_f_1_2545" x="4.89752" y="0" width="131.454" height="131.967" filterUnits="userSpaceOnUse" color-interpolation-filters="sRGB">
<feFlood flood-opacity="0" result="BackgroundImageFix"/>
<feBlend mode="normal" in="SourceGraphic" in2="BackgroundImageFix" result="shape"/>
<feGaussianBlur stdDeviation="1" result="effect1_foregroundBlur_1_2545"/>
</filter>
<filter id="filter2_f_1_2545" x="0.867859" y="3.92114" width="93.8331" height="91.8271" filterUnits="userSpaceOnUse" color-interpolation-filters="sRGB">
<feFlood flood-opacity="0" result="BackgroundImageFix"/>
<feBlend mode="normal" in="SourceGraphic" in2="BackgroundImageFix" result="shape"/>
<feGaussianBlur stdDeviation="10" result="effect1_foregroundBlur_1_2545"/>
</filter>
<filter id="filter3_f_1_2545" x="235.607" y="115.296" width="47.484" height="68.824" filterUnits="userSpaceOnUse" color-interpolation-filters="sRGB">
<feFlood flood-opacity="0" result="BackgroundImageFix"/>
<feBlend mode="normal" in="SourceGraphic" in2="BackgroundImageFix" result="shape"/>
<feGaussianBlur stdDeviation="1" result="effect1_foregroundBlur_1_2545"/>
</filter>
<linearGradient id="paint0_linear_1_2545" x1="44.852" y1="2" x2="44.852" y2="14" gradientUnits="userSpaceOnUse">
<stop stop-color="#6B38FC"/>
<stop offset="1" stop-color="#9F7EFD"/>
</linearGradient>
<linearGradient id="paint1_linear_1_2545" x1="128.352" y1="110" x2="128.352" y2="121" gradientUnits="userSpaceOnUse">
<stop stop-color="#6B38FC"/>
<stop offset="1" stop-color="#9F7EFD"/>
</linearGradient>
<linearGradient id="paint2_linear_1_2545" x1="103.573" y1="16.478" x2="106.401" y2="27.0257" gradientUnits="userSpaceOnUse">
<stop stop-color="#6B38FC"/>
<stop offset="1" stop-color="#9F7EFD"/>
</linearGradient>
<linearGradient id="paint3_linear_1_2545" x1="10.3077" y1="102.132" x2="14.1028" y2="111.071" gradientUnits="userSpaceOnUse">
<stop stop-color="#6B38FC"/>
<stop offset="1" stop-color="#9F7EFD"/>
</linearGradient>
<linearGradient id="paint4_linear_1_2545" x1="101.108" y1="54.4576" x2="93.4244" y2="52.6837" gradientUnits="userSpaceOnUse">
<stop stop-color="#6B38FC"/>
<stop offset="1" stop-color="#9F7EFD"/>
</linearGradient>
<linearGradient id="paint5_linear_1_2545" x1="255.348" y1="149.708" x2="235.037" y2="142.261" gradientUnits="userSpaceOnUse">
<stop stop-color="#FFD100"/>
<stop offset="1" stop-color="#FFF0AA"/>
</linearGradient>
</defs>
</svg>
