<svg width="392" height="343" viewBox="0 0 392 343" fill="none" xmlns="http://www.w3.org/2000/svg">
<g filter="url(#filter0_f_1_982)">
<path d="M124.034 211.835C124.563 212.318 113.494 236.126 107.062 243.525C100.63 250.925 92.7211 254.575 89.3943 251.683C86.0675 248.791 88.5813 240.452 95.0139 233.052C101.447 225.652 123.506 211.351 124.034 211.835Z" fill="#42A0F0"/>
<path d="M96.1589 238.023C96.8051 239.057 99.0421 238.825 101.155 237.504C103.269 236.184 104.458 234.275 103.812 233.241C103.165 232.207 100.928 232.439 98.8152 233.759C96.7019 235.08 95.5127 236.989 96.1589 238.023Z" fill="white"/>
<path d="M192.034 211.835C192.563 212.318 181.494 236.126 175.062 243.525C168.63 250.925 160.721 254.575 157.394 251.683C154.068 248.791 156.581 240.452 163.014 233.052C169.447 225.652 191.506 211.351 192.034 211.835Z" fill="#42A0F0"/>
<path d="M164.159 238.023C164.805 239.057 167.042 238.825 169.155 237.504C171.269 236.184 172.458 234.275 171.812 233.241C171.165 232.207 168.928 232.439 166.815 233.759C164.702 235.08 163.513 236.989 164.159 238.023Z" fill="white"/>
<path d="M260.034 211.835C260.563 212.318 249.494 236.126 243.062 243.525C236.63 250.925 228.721 254.575 225.394 251.683C222.068 248.791 224.581 240.452 231.014 233.052C237.447 225.652 259.506 211.351 260.034 211.835Z" fill="#42A0F0"/>
<path d="M232.159 238.023C232.805 239.057 235.042 238.825 237.155 237.504C239.269 236.184 240.458 234.275 239.812 233.241C239.165 232.207 236.928 232.439 234.815 233.759C232.702 235.08 231.513 236.989 232.159 238.023Z" fill="white"/>
<path d="M200.034 261.835C200.563 262.318 189.494 286.126 183.062 293.525C176.63 300.925 168.721 304.575 165.394 301.683C162.068 298.791 164.581 290.452 171.014 283.052C177.447 275.652 199.506 261.351 200.034 261.835Z" fill="#42A0F0"/>
<path d="M172.159 288.023C172.805 289.057 175.042 288.825 177.155 287.504C179.269 286.184 180.458 284.275 179.812 283.241C179.165 282.207 176.928 282.439 174.815 283.759C172.702 285.08 171.513 286.989 172.159 288.023Z" fill="white"/>
<path d="M283.034 261.835C283.563 262.318 272.494 286.126 266.062 293.525C259.63 300.925 251.721 304.575 248.394 301.683C245.068 298.791 247.581 290.452 254.014 283.052C260.447 275.652 282.506 261.351 283.034 261.835Z" fill="#42A0F0"/>
<path d="M255.159 288.023C255.805 289.057 258.042 288.825 260.155 287.504C262.269 286.184 263.458 284.275 262.812 283.241C262.165 282.207 259.928 282.439 257.815 283.759C255.702 285.08 254.513 286.989 255.159 288.023Z" fill="white"/>
<path d="M223.034 297.835C223.563 298.318 212.494 322.126 206.062 329.525C199.63 336.925 191.721 340.575 188.394 337.683C185.068 334.791 187.581 326.452 194.014 319.052C200.447 311.652 222.506 297.351 223.034 297.835Z" fill="#42A0F0"/>
<path d="M195.159 324.023C195.805 325.057 198.042 324.825 200.155 323.504C202.269 322.184 203.458 320.275 202.812 319.241C202.165 318.207 199.928 318.439 197.815 319.759C195.702 321.08 194.513 322.989 195.159 324.023Z" fill="white"/>
<path d="M147.034 297.835C147.563 298.318 136.494 322.126 130.062 329.525C123.63 336.925 115.721 340.575 112.394 337.683C109.068 334.791 111.581 326.452 118.014 319.052C124.447 311.652 146.506 297.351 147.034 297.835Z" fill="#42A0F0"/>
<path d="M119.159 324.023C119.805 325.057 122.042 324.825 124.155 323.504C126.269 322.184 127.458 320.275 126.812 319.241C126.165 318.207 123.928 318.439 121.815 319.759C119.702 321.08 118.513 322.989 119.159 324.023Z" fill="white"/>
<path d="M124.034 261.835C124.563 262.318 113.494 286.126 107.062 293.525C100.63 300.925 92.7211 304.575 89.3943 301.683C86.0675 298.791 88.5813 290.452 95.0139 283.052C101.447 275.652 123.506 261.351 124.034 261.835Z" fill="#42A0F0"/>
<path d="M96.1589 288.023C96.8051 289.057 99.0421 288.825 101.155 287.504C103.269 286.184 104.458 284.275 103.812 283.241C103.165 282.207 100.928 282.439 98.8152 283.759C96.7019 285.08 95.5127 286.989 96.1589 288.023Z" fill="white"/>
</g>
<g filter="url(#filter1_f_1_982)">
<path d="M129.664 171C170.257 171 203.164 138.093 203.164 97.5C203.164 56.9071 170.257 24 129.664 24C89.0713 24 56.1642 56.9071 56.1642 97.5C56.1642 138.093 89.0713 171 129.664 171Z" fill="#FA9E42"/>
</g>
<g filter="url(#filter2_f_1_982)">
<path d="M129.664 188C179.646 188 220.164 147.482 220.164 97.5C220.164 47.5182 179.646 7 129.664 7C79.6824 7 39.1642 47.5182 39.1642 97.5C39.1642 147.482 79.6824 188 129.664 188Z" stroke="#FA9E42" stroke-width="10" stroke-linecap="round" stroke-dasharray="1 66"/>
</g>
<g filter="url(#filter3_f_1_982)">
<path d="M121.393 82.824C147.136 69.151 161.697 46.1934 153.918 31.5468C146.139 16.9002 118.964 16.1109 93.2211 29.7839C67.4786 43.4569 52.9167 66.4144 60.6962 81.061C68.4756 95.7076 95.6505 96.4969 121.393 82.824Z" fill="#F8E36F"/>
</g>
<g filter="url(#filter4_df_1_982)">
<g filter="url(#filter5_d_1_982)">
<path d="M235.562 242.765C233.629 242.92 231.676 242.999 229.705 243H92.1812C82.7149 243.035 73.3348 241.201 64.579 237.603C55.8232 234.005 47.8639 228.714 41.1577 222.032C34.4516 215.351 29.1305 207.412 25.4997 198.669C21.869 189.927 20 180.554 20 171.087C20 161.621 21.869 152.248 25.4997 143.506C29.1305 134.763 34.4516 126.824 41.1577 120.143C47.8639 113.461 55.8232 108.17 64.579 104.572C73.3348 100.974 82.7149 99.1397 92.1812 99.175H143.457C160.081 62.6 198.368 37 242.941 37C302.768 37 351.268 83.115 351.268 140C351.268 196.885 302.768 243 242.941 243C240.461 243 238.001 242.922 235.562 242.765Z" fill="url(#paint0_linear_1_982)"/>
<path d="M242.941 242C250.227 242 257.508 241.302 264.582 239.926C271.475 238.585 278.255 236.584 284.734 233.978C291.094 231.42 297.229 228.254 302.967 224.568C308.65 220.917 313.994 216.725 318.851 212.107C323.706 207.49 328.114 202.411 331.953 197.009C335.827 191.557 339.154 185.728 341.842 179.686C344.579 173.532 346.681 167.093 348.09 160.547C349.535 153.831 350.268 146.917 350.268 140C350.268 133.082 349.535 126.169 348.09 119.452C346.681 112.906 344.579 106.467 341.842 100.314C339.154 94.2716 335.827 88.4433 331.953 82.991C328.114 77.5893 323.706 72.5095 318.851 67.8928C313.994 63.2752 308.65 59.0829 302.967 55.4323C297.229 51.7461 291.094 48.5801 284.734 46.0221C278.255 43.4165 271.475 41.4154 264.582 40.0742C257.508 38.6979 250.227 38 242.941 38C221.57 38 200.931 43.9523 183.255 55.2135C174.734 60.6418 167.078 67.1939 160.498 74.6878C153.876 82.2291 148.449 90.6069 144.367 99.5885L144.1 100.175H143.457H92.1809C82.6073 100.175 73.3206 102.049 64.5788 105.747C60.3772 107.524 56.3246 109.724 52.5337 112.285C48.7785 114.822 45.2473 117.735 42.0381 120.945C38.8289 124.154 35.9154 127.685 33.3784 131.44C30.8173 135.231 28.6176 139.284 26.8405 143.485C23.143 152.227 21.2682 161.514 21.2682 171.087C21.2682 180.661 23.143 189.948 26.8405 198.689C28.6176 202.891 30.8173 206.944 33.3784 210.735C35.9154 214.49 38.8289 218.021 42.0381 221.23C45.2473 224.439 48.7785 227.353 52.5337 229.89C56.3246 232.451 60.3772 234.651 64.5788 236.428C73.3206 240.125 82.6073 242 92.1809 242H229.705C231.628 242 233.572 241.922 235.482 241.768L235.554 241.762L235.626 241.767C238.046 241.922 240.507 242 242.941 242ZM242.941 243C240.461 243 238 242.921 235.563 242.765C233.632 242.92 231.676 243 229.705 243H92.1809C52.4648 243 20.2682 210.803 20.2682 171.087C20.2682 131.371 52.4648 99.1747 92.1809 99.1747H143.457C160.081 62.5954 198.366 37 242.941 37C302.768 37 351.268 83.1151 351.268 140C351.268 196.885 302.768 243 242.941 243Z" fill="white" fill-opacity="0.5"/>
</g>
</g>
<defs>
<filter id="filter0_f_1_982" x="83.9253" y="207.823" width="203.127" height="134.852" filterUnits="userSpaceOnUse" color-interpolation-filters="sRGB">
<feFlood flood-opacity="0" result="BackgroundImageFix"/>
<feBlend mode="normal" in="SourceGraphic" in2="BackgroundImageFix" result="shape"/>
<feGaussianBlur stdDeviation="2" result="effect1_foregroundBlur_1_982"/>
</filter>
<filter id="filter1_f_1_982" x="52.1642" y="20" width="155" height="155" filterUnits="userSpaceOnUse" color-interpolation-filters="sRGB">
<feFlood flood-opacity="0" result="BackgroundImageFix"/>
<feBlend mode="normal" in="SourceGraphic" in2="BackgroundImageFix" result="shape"/>
<feGaussianBlur stdDeviation="2" result="effect1_foregroundBlur_1_982"/>
</filter>
<filter id="filter2_f_1_982" x="32.1642" y="0" width="195" height="195" filterUnits="userSpaceOnUse" color-interpolation-filters="sRGB">
<feFlood flood-opacity="0" result="BackgroundImageFix"/>
<feBlend mode="normal" in="SourceGraphic" in2="BackgroundImageFix" result="shape"/>
<feGaussianBlur stdDeviation="1" result="effect1_foregroundBlur_1_982"/>
</filter>
<filter id="filter3_f_1_982" x="38.6014" y="0.0239258" width="137.411" height="112.56" filterUnits="userSpaceOnUse" color-interpolation-filters="sRGB">
<feFlood flood-opacity="0" result="BackgroundImageFix"/>
<feBlend mode="normal" in="SourceGraphic" in2="BackgroundImageFix" result="shape"/>
<feGaussianBlur stdDeviation="10" result="effect1_foregroundBlur_1_982"/>
</filter>
<filter id="filter4_df_1_982" x="0" y="9" width="391.268" height="266" filterUnits="userSpaceOnUse" color-interpolation-filters="sRGB">
<feFlood flood-opacity="0" result="BackgroundImageFix"/>
<feColorMatrix in="SourceAlpha" type="matrix" values="0 0 0 0 0 0 0 0 0 0 0 0 0 0 0 0 0 0 127 0" result="hardAlpha"/>
<feOffset dx="10" dy="2"/>
<feGaussianBlur stdDeviation="15"/>
<feColorMatrix type="matrix" values="0 0 0 0 0.258824 0 0 0 0 0.627451 0 0 0 0 0.941176 0 0 0 0.596 0"/>
<feBlend mode="normal" in2="BackgroundImageFix" result="effect1_dropShadow_1_982"/>
<feBlend mode="normal" in="SourceGraphic" in2="effect1_dropShadow_1_982" result="shape"/>
<feGaussianBlur stdDeviation="2" result="effect2_foregroundBlur_1_982"/>
</filter>
<filter id="filter5_d_1_982" x="0" y="9" width="391.268" height="266" filterUnits="userSpaceOnUse" color-interpolation-filters="sRGB">
<feFlood flood-opacity="0" result="BackgroundImageFix"/>
<feColorMatrix in="SourceAlpha" type="matrix" values="0 0 0 0 0 0 0 0 0 0 0 0 0 0 0 0 0 0 127 0" result="hardAlpha"/>
<feOffset dx="10" dy="2"/>
<feGaussianBlur stdDeviation="15"/>
<feColorMatrix type="matrix" values="0 0 0 0 0.501961 0 0 0 0 0.501961 0 0 0 0 0.501961 0 0 0 0.302 0"/>
<feBlend mode="normal" in2="BackgroundImageFix" result="effect1_dropShadow_1_982"/>
<feBlend mode="normal" in="SourceGraphic" in2="effect1_dropShadow_1_982" result="shape"/>
</filter>
<linearGradient id="paint0_linear_1_982" x1="154.164" y1="62.9561" x2="220.206" y2="254.168" gradientUnits="userSpaceOnUse">
<stop stop-color="white" stop-opacity="0.596"/>
<stop offset="1" stop-color="#F7F7F7" stop-opacity="0.204"/>
</linearGradient>
</defs>
</svg>
