<svg width="392" height="302" viewBox="0 0 392 302" fill="none" xmlns="http://www.w3.org/2000/svg">
<g filter="url(#filter0_f_1_1550)">
<path d="M126.035 206.834C126.564 207.318 115.495 231.126 109.063 238.525C102.631 245.924 94.7189 249.579 91.3921 246.687C88.0654 243.795 90.5824 235.452 97.0144 228.052C103.446 220.653 125.506 206.352 126.035 206.834Z" fill="#42A0F0"/>
<path d="M98.1599 233.022C98.8061 234.057 101.043 233.824 103.156 232.504C105.27 231.183 106.459 229.275 105.813 228.24C105.166 227.206 102.929 227.438 100.816 228.759C98.7029 230.079 97.5136 231.988 98.1599 233.022Z" fill="white"/>
<path d="M194.035 206.834C194.564 207.318 183.495 231.126 177.063 238.525C170.631 245.924 162.719 249.579 159.392 246.687C156.065 243.795 158.582 235.452 165.014 228.052C171.446 220.653 193.506 206.352 194.035 206.834Z" fill="#42A0F0"/>
<path d="M166.16 233.022C166.806 234.057 169.043 233.824 171.156 232.504C173.27 231.183 174.459 229.275 173.813 228.24C173.166 227.206 170.929 227.438 168.816 228.759C166.703 230.079 165.514 231.988 166.16 233.022Z" fill="white"/>
<path d="M262.035 206.834C262.564 207.318 251.495 231.126 245.063 238.525C238.631 245.924 230.719 249.579 227.392 246.687C224.065 243.795 226.582 235.452 233.014 228.052C239.446 220.653 261.506 206.352 262.035 206.834Z" fill="#42A0F0"/>
<path d="M234.16 233.022C234.806 234.057 237.043 233.824 239.156 232.504C241.27 231.183 242.459 229.275 241.813 228.24C241.166 227.206 238.929 227.438 236.816 228.759C234.703 230.079 233.514 231.988 234.16 233.022Z" fill="white"/>
<path d="M202.035 256.834C202.564 257.318 191.495 281.126 185.063 288.525C178.631 295.924 170.719 299.579 167.392 296.687C164.065 293.795 166.582 285.452 173.014 278.052C179.446 270.653 201.506 256.352 202.035 256.834Z" fill="#42A0F0"/>
<path d="M174.16 283.022C174.806 284.057 177.043 283.824 179.156 282.504C181.27 281.183 182.459 279.275 181.813 278.24C181.166 277.206 178.929 277.438 176.816 278.759C174.703 280.079 173.514 281.988 174.16 283.022Z" fill="white"/>
<path d="M126.035 256.834C126.564 257.318 115.495 281.126 109.063 288.525C102.631 295.924 94.7189 299.579 91.3921 296.687C88.0654 293.795 90.5824 285.452 97.0144 278.052C103.446 270.653 125.506 256.352 126.035 256.834Z" fill="#42A0F0"/>
<path d="M98.1599 283.022C98.8061 284.057 101.043 283.824 103.156 282.504C105.27 281.183 106.459 279.275 105.813 278.24C105.166 277.206 102.929 277.438 100.816 278.759C98.7029 280.079 97.5136 281.988 98.1599 283.022Z" fill="white"/>
</g>
<g filter="url(#filter1_df_1_1550)">
<g filter="url(#filter2_d_1_1550)">
<path d="M235.562 233.765C233.629 233.92 231.676 233.999 229.705 234H92.1812C82.7149 234.035 73.3348 232.201 64.579 228.603C55.8232 225.005 47.8639 219.714 41.1577 213.032C34.4516 206.351 29.1305 198.412 25.4997 189.669C21.869 180.927 20 171.554 20 162.087C20 152.621 21.869 143.248 25.4997 134.506C29.1305 125.763 34.4516 117.824 41.1577 111.143C47.8639 104.461 55.8232 99.17 64.579 95.5718C73.3348 91.9737 82.7149 90.1397 92.1812 90.175H143.457C160.081 53.6 198.368 28 242.941 28C302.768 28 351.268 74.115 351.268 131C351.268 187.885 302.768 234 242.941 234C240.461 234 238.001 233.922 235.562 233.765Z" fill="url(#paint0_linear_1_1550)"/>
<path d="M242.941 233C250.227 233 257.508 232.302 264.582 230.926C271.475 229.585 278.255 227.584 284.734 224.978C291.094 222.42 297.229 219.254 302.967 215.568C308.651 211.917 313.995 207.725 318.851 203.107C323.707 198.49 328.115 193.411 331.953 188.009C335.827 182.557 339.154 176.728 341.842 170.686C344.579 164.532 346.681 158.093 348.09 151.547C349.536 144.831 350.269 137.917 350.269 131C350.269 124.082 349.536 117.169 348.09 110.452C346.681 103.906 344.579 97.4673 341.842 91.3142C339.154 85.2716 335.827 79.4433 331.953 73.991C328.115 68.5893 323.707 63.5095 318.851 58.8928C313.995 54.2752 308.651 50.0829 302.967 46.4323C297.229 42.7461 291.094 39.5801 284.734 37.0221C278.255 34.4165 271.475 32.4154 264.582 31.0742C257.508 29.6979 250.227 29 242.941 29C221.57 29 200.931 34.9523 183.255 46.2135C174.734 51.6418 167.078 58.1939 160.498 65.6878C153.876 73.2291 148.449 81.6069 144.367 90.5885L144.101 91.1747H143.457H92.181C82.6074 91.1747 73.3208 93.0495 64.5789 96.747C60.3773 98.5242 56.3247 100.724 52.5338 103.285C48.7786 105.822 45.2474 108.735 42.0382 111.945C38.829 115.154 35.9155 118.685 33.3785 122.44C30.8174 126.231 28.6178 130.284 26.8406 134.485C23.1431 143.227 21.2683 152.514 21.2683 162.087C21.2683 171.661 23.1431 180.948 26.8406 189.689C28.6178 193.891 30.8174 197.944 33.3785 201.735C35.9155 205.49 38.829 209.021 42.0382 212.23C45.2474 215.439 48.7786 218.353 52.5338 220.89C56.3247 223.451 60.3773 225.651 64.5789 227.428C73.3208 231.125 82.6074 233 92.181 233H229.706C231.628 233 233.572 232.922 235.482 232.768L235.554 232.762L235.627 232.767C238.046 232.922 240.507 233 242.941 233ZM242.941 234C240.461 234 238.001 233.921 235.563 233.765C233.632 233.92 231.676 234 229.706 234H92.181C52.4649 234 20.2683 201.803 20.2683 162.087C20.2683 122.371 52.4649 90.1747 92.181 90.1747H143.457C160.081 53.5954 198.366 28 242.941 28C302.768 28 351.269 74.1151 351.269 131C351.269 187.885 302.768 234 242.941 234Z" fill="white" fill-opacity="0.5"/>
</g>
</g>
<defs>
<filter id="filter0_f_1_1550" x="85.9238" y="202.822" width="180.13" height="98.8551" filterUnits="userSpaceOnUse" color-interpolation-filters="sRGB">
<feFlood flood-opacity="0" result="BackgroundImageFix"/>
<feBlend mode="normal" in="SourceGraphic" in2="BackgroundImageFix" result="shape"/>
<feGaussianBlur stdDeviation="2" result="effect1_foregroundBlur_1_1550"/>
</filter>
<filter id="filter1_df_1_1550" x="0" y="0" width="391.269" height="266" filterUnits="userSpaceOnUse" color-interpolation-filters="sRGB">
<feFlood flood-opacity="0" result="BackgroundImageFix"/>
<feColorMatrix in="SourceAlpha" type="matrix" values="0 0 0 0 0 0 0 0 0 0 0 0 0 0 0 0 0 0 127 0" result="hardAlpha"/>
<feOffset dx="10" dy="2"/>
<feGaussianBlur stdDeviation="15"/>
<feColorMatrix type="matrix" values="0 0 0 0 0.258824 0 0 0 0 0.627451 0 0 0 0 0.941176 0 0 0 0.596 0"/>
<feBlend mode="normal" in2="BackgroundImageFix" result="effect1_dropShadow_1_1550"/>
<feBlend mode="normal" in="SourceGraphic" in2="effect1_dropShadow_1_1550" result="shape"/>
<feGaussianBlur stdDeviation="2" result="effect2_foregroundBlur_1_1550"/>
</filter>
<filter id="filter2_d_1_1550" x="0" y="0" width="391.269" height="266" filterUnits="userSpaceOnUse" color-interpolation-filters="sRGB">
<feFlood flood-opacity="0" result="BackgroundImageFix"/>
<feColorMatrix in="SourceAlpha" type="matrix" values="0 0 0 0 0 0 0 0 0 0 0 0 0 0 0 0 0 0 127 0" result="hardAlpha"/>
<feOffset dx="10" dy="2"/>
<feGaussianBlur stdDeviation="15"/>
<feColorMatrix type="matrix" values="0 0 0 0 0.501961 0 0 0 0 0.501961 0 0 0 0 0.501961 0 0 0 0.302 0"/>
<feBlend mode="normal" in2="BackgroundImageFix" result="effect1_dropShadow_1_1550"/>
<feBlend mode="normal" in="SourceGraphic" in2="effect1_dropShadow_1_1550" result="shape"/>
</filter>
<linearGradient id="paint0_linear_1_1550" x1="154.164" y1="53.9561" x2="220.206" y2="245.168" gradientUnits="userSpaceOnUse">
<stop stop-color="white" stop-opacity="0.596"/>
<stop offset="1" stop-color="#F7F7F7" stop-opacity="0.204"/>
</linearGradient>
</defs>
</svg>
