<svg width="268" height="180" viewBox="0 0 268 180" fill="none" xmlns="http://www.w3.org/2000/svg">
<g filter="url(#filter0_f_1_2117)">
<path d="M115.841 29.625C115.841 29.625 125.605 42.861 133.236 42.425C142.802 41.863 144.436 30.325 153.304 29.625C162.582 29.764 163.529 41.725 173.585 42.425C182.595 42.264 186.412 29.843 195.001 29.625C203.59 29.407 212.745 42.425 212.745 42.425" stroke="white" stroke-width="16" stroke-linecap="round"/>
</g>
<g filter="url(#filter1_f_1_2117)">
<path d="M109.828 109.625C109.828 109.625 124.528 122.861 136.021 122.425C150.421 121.863 152.892 110.325 166.239 109.625C180.209 109.764 181.639 121.725 196.778 122.425C210.345 122.264 216.093 109.843 229.025 109.625C241.957 109.407 255.744 122.424 255.744 122.424" stroke="white" stroke-width="16" stroke-linecap="round"/>
</g>
<g filter="url(#filter2_f_1_2117)">
<path d="M25.828 154.625C25.828 154.625 40.528 167.861 52.021 167.425C66.421 166.863 68.892 155.325 82.239 154.625C96.209 154.764 97.639 166.725 112.778 167.425C126.345 167.264 132.093 154.843 145.025 154.625C157.957 154.407 171.744 167.424 171.744 167.424" stroke="white" stroke-width="16" stroke-linecap="round"/>
</g>
<g filter="url(#filter3_f_1_2117)">
<path d="M176.517 69.98L169.517 76.98" stroke="#CAD1D2" stroke-width="4" stroke-linecap="round"/>
<path d="M169.517 69.98L176.517 76.98" stroke="#CAD1D2" stroke-width="4" stroke-linecap="round"/>
<path d="M233.537 150.98L228.517 156" stroke="#42A0F0" stroke-width="4" stroke-linecap="round"/>
<path d="M228.517 150.98L233.537 156" stroke="#42A0F0" stroke-width="4" stroke-linecap="round"/>
<path d="M18.537 125.98L13.517 131" stroke="#D0D0D0" stroke-width="4" stroke-linecap="round"/>
<path d="M13.517 125.98L18.537 131" stroke="#D0D0D0" stroke-width="4" stroke-linecap="round"/>
<path d="M224.537 7.98001L219.517 13" stroke="#42A0F0" stroke-width="4" stroke-linecap="round"/>
<path d="M219.517 7.98001L224.537 13" stroke="#42A0F0" stroke-width="4" stroke-linecap="round"/>
</g>
<g filter="url(#filter4_f_1_2117)">
<path d="M25.677 4.00001C27.622 4.02201 47.354 34.831 47.354 46.8C47.3544 52.5491 45.071 58.0629 41.006 62.1284C36.9411 66.1939 31.4276 68.4781 25.6785 68.4785C19.9294 68.4789 14.4156 66.1955 10.3501 62.1305C6.2846 58.0656 4.0004 52.5521 4 46.803C4 34.829 23.732 3.97901 25.677 4.00001Z" fill="#42A0F0"/>
<path d="M9.14943 54.9055C11.3154 55.5677 14.0682 52.8437 15.2979 48.8213C16.5277 44.7989 15.7688 41.0012 13.6028 40.339C11.4369 39.6768 8.6841 42.4008 7.45433 46.4232C6.22455 50.4456 6.98348 54.2433 9.14943 54.9055Z" fill="white"/>
<path d="M69.432 59C70.817 59.015 84.864 80.948 84.864 89.471C84.864 93.5638 83.2381 97.489 80.3441 100.383C77.45 103.277 73.5248 104.903 69.432 104.903C65.3392 104.903 61.414 103.277 58.5199 100.383C55.6259 97.489 54 93.5638 54 89.471C54 80.948 68.047 58.985 69.432 59Z" fill="#42A0F0"/>
<path d="M57.6659 95.2389C59.2081 95.7104 61.168 93.7712 62.0435 90.9075C62.919 88.0439 62.3786 85.3402 60.8364 84.8687C59.2941 84.3972 57.3342 86.3365 56.4587 89.2001C55.5832 92.0637 56.1237 94.7674 57.6659 95.2389Z" fill="white"/>
</g>
<defs>
<filter id="filter0_f_1_2117" x="103.841" y="17.6203" width="120.905" height="36.8154" filterUnits="userSpaceOnUse" color-interpolation-filters="sRGB">
<feFlood flood-opacity="0" result="BackgroundImageFix"/>
<feBlend mode="normal" in="SourceGraphic" in2="BackgroundImageFix" result="shape"/>
<feGaussianBlur stdDeviation="2" result="effect1_foregroundBlur_1_2117"/>
</filter>
<filter id="filter1_f_1_2117" x="97.8279" y="97.6223" width="169.916" height="36.8131" filterUnits="userSpaceOnUse" color-interpolation-filters="sRGB">
<feFlood flood-opacity="0" result="BackgroundImageFix"/>
<feBlend mode="normal" in="SourceGraphic" in2="BackgroundImageFix" result="shape"/>
<feGaussianBlur stdDeviation="2" result="effect1_foregroundBlur_1_2117"/>
</filter>
<filter id="filter2_f_1_2117" x="13.8279" y="142.622" width="169.916" height="36.8131" filterUnits="userSpaceOnUse" color-interpolation-filters="sRGB">
<feFlood flood-opacity="0" result="BackgroundImageFix"/>
<feBlend mode="normal" in="SourceGraphic" in2="BackgroundImageFix" result="shape"/>
<feGaussianBlur stdDeviation="2" result="effect1_foregroundBlur_1_2117"/>
</filter>
<filter id="filter3_f_1_2117" x="9.51697" y="3.98001" width="228.02" height="156.02" filterUnits="userSpaceOnUse" color-interpolation-filters="sRGB">
<feFlood flood-opacity="0" result="BackgroundImageFix"/>
<feBlend mode="normal" in="SourceGraphic" in2="BackgroundImageFix" result="shape"/>
<feGaussianBlur stdDeviation="1" result="effect1_foregroundBlur_1_2117"/>
</filter>
<filter id="filter4_f_1_2117" x="0" y="0" width="88.864" height="108.903" filterUnits="userSpaceOnUse" color-interpolation-filters="sRGB">
<feFlood flood-opacity="0" result="BackgroundImageFix"/>
<feBlend mode="normal" in="SourceGraphic" in2="BackgroundImageFix" result="shape"/>
<feGaussianBlur stdDeviation="2" result="effect1_foregroundBlur_1_2117"/>
</filter>
</defs>
</svg>
