<svg width="307" height="179" viewBox="0 0 307 179" fill="none" xmlns="http://www.w3.org/2000/svg">
<g filter="url(#filter0_f_1_2197)">
<path d="M182 146H129L155 163.5L182 146Z" fill="#FA9F42"/>
<path d="M9.5 150.325H127.063L154.928 168.935L183.5 150.325H297.5" stroke="#D0D0D0" stroke-width="10" stroke-linecap="round"/>
<mask id="mask0_1_2197" style="mask-type:alpha" maskUnits="userSpaceOnUse" x="2" y="0" width="301" height="146">
<rect x="2" width="301" height="146" fill="#C4C4C4"/>
</mask>
<g mask="url(#mask0_1_2197)">
<path d="M153 246.361C212.094 246.361 260 200.493 260 143.912C260 87.3316 212.094 41.4638 153 41.4638C93.9055 41.4638 46 87.3316 46 143.912C46 200.493 93.9055 246.361 153 246.361Z" fill="#FA9E42"/>
<path d="M153 272.213C227.006 272.213 287 214.771 287 143.912C287 73.0542 227.006 15.6122 153 15.6122C78.9938 15.6122 19 73.0542 19 143.912C19 214.771 78.9938 272.213 153 272.213Z" stroke="#FA9E42" stroke-width="10" stroke-linecap="round" stroke-dasharray="1 66"/>
<g filter="url(#filter1_f_1_2197)">
<path d="M141.57 123.615C179.001 104.58 200.174 72.6185 188.863 52.228C177.551 31.8374 138.038 30.7387 100.608 49.774C63.1773 68.8093 42.0037 100.77 53.3152 121.161C64.6267 141.551 104.14 142.65 141.57 123.615Z" fill="#F8E36F"/>
</g>
</g>
</g>
<defs>
<filter id="filter0_f_1_2197" x="0.5" y="6.61224" width="306" height="172.312" filterUnits="userSpaceOnUse" color-interpolation-filters="sRGB">
<feFlood flood-opacity="0" result="BackgroundImageFix"/>
<feBlend mode="normal" in="SourceGraphic" in2="BackgroundImageFix" result="shape"/>
<feGaussianBlur stdDeviation="2" result="effect1_foregroundBlur_1_2197"/>
</filter>
<filter id="filter1_f_1_2197" x="30.2694" y="16.1863" width="181.639" height="141.016" filterUnits="userSpaceOnUse" color-interpolation-filters="sRGB">
<feFlood flood-opacity="0" result="BackgroundImageFix"/>
<feBlend mode="normal" in="SourceGraphic" in2="BackgroundImageFix" result="shape"/>
<feGaussianBlur stdDeviation="10" result="effect1_foregroundBlur_1_2197"/>
</filter>
</defs>
</svg>
